<?xml version="1.0" encoding="UTF-8" standalone="no"?>
<!-- Generator: Adobe Illustrator 19.0.0, SVG Export Plug-In . SVG Version: 6.00 Build 0)  -->

<svg
   xmlns:dc="http://purl.org/dc/elements/1.1/"
   xmlns:cc="http://creativecommons.org/ns#"
   xmlns:rdf="http://www.w3.org/1999/02/22-rdf-syntax-ns#"
   xmlns:svg="http://www.w3.org/2000/svg"
   xmlns="http://www.w3.org/2000/svg"
   xmlns:sodipodi="http://sodipodi.sourceforge.net/DTD/sodipodi-0.dtd"
   xmlns:inkscape="http://www.inkscape.org/namespaces/inkscape"
   version="1.1"
   id="Capa_1"
   x="0px"
   y="0px"
   viewBox="0 0 512 512"
   style="enable-background:new 0 0 512 512;"
   xml:space="preserve"
   sodipodi:docname="blogging.svg"
   inkscape:version="0.92.4 (5da689c313, 2019-01-14)"><metadata
   id="metadata1004"><rdf:RDF><cc:Work
       rdf:about=""><dc:format>image/svg+xml</dc:format><dc:type
         rdf:resource="http://purl.org/dc/dcmitype/StillImage" /></cc:Work></rdf:RDF></metadata><defs
   id="defs1002" /><sodipodi:namedview
   pagecolor="#ffffff"
   bordercolor="#666666"
   borderopacity="1"
   objecttolerance="10"
   gridtolerance="10"
   guidetolerance="10"
   inkscape:pageopacity="0"
   inkscape:pageshadow="2"
   inkscape:window-width="1920"
   inkscape:window-height="1017"
   id="namedview1000"
   showgrid="false"
   inkscape:zoom="0.4609375"
   inkscape:cx="256"
   inkscape:cy="256"
   inkscape:window-x="-8"
   inkscape:window-y="-8"
   inkscape:window-maximized="1"
   inkscape:current-layer="Capa_1" />
<g
   id="g967"
   style="fill:#fd9975;fill-opacity:1">
	<g
   id="g965"
   style="fill:#fd9975;fill-opacity:1">
		<g
   id="g963"
   style="fill:#fd9975;fill-opacity:1">
			<path
   d="M53.572,269.851C57.344,273.779,62.554,276,68,276s10.656-2.221,14.428-6.149l48-50C134.003,216.126,136,211.163,136,206     V20c0-11.046-8.954-20-20-20H20C8.954,0,0,8.954,0,20v186c0,5.163,1.997,10.126,5.572,13.851L53.572,269.851z M40,40h56v157.954     l-28,29.167l-28-29.167V40z"
   id="path951"
   style="fill:#fd9975;fill-opacity:1" />
			<path
   d="M205.999,40H492c11.046,0,20-8.954,20-20s-8.954-20-20-20H205.999c-11.046,0-20,8.954-20,20S194.953,40,205.999,40z"
   id="path953"
   style="fill:#fd9975;fill-opacity:1" />
			<path
   d="M492,472H20c-11.046,0-20,8.954-20,20c0,11.046,8.954,20,20,20h472c11.046,0,20-8.954,20-20     C512,480.954,503.046,472,492,472z"
   id="path955"
   style="fill:#fd9975;fill-opacity:1" />
			<path
   d="M492,354H20c-11.046,0-20,8.954-20,20c0,11.046,8.954,20,20,20h472c11.046,0,20-8.954,20-20     C512,362.954,503.046,354,492,354z"
   id="path957"
   style="fill:#fd9975;fill-opacity:1" />
			<path
   d="M492,118H205.999c-11.046,0-20,8.954-20,20c0,11.046,8.954,20,20,20H492c11.046,0,20-8.954,20-20S503.046,118,492,118z"
   id="path959"
   style="fill:#fd9975;fill-opacity:1" />
			<path
   d="M492,236H205.999c-11.046,0-20,8.954-20,20s8.954,20,20,20H492c11.046,0,20-8.954,20-20C512,244.954,503.046,236,492,236     z"
   id="path961"
   style="fill:#fd9975;fill-opacity:1" />
		</g>
	</g>
</g>
<g
   id="g969">
</g>
<g
   id="g971">
</g>
<g
   id="g973">
</g>
<g
   id="g975">
</g>
<g
   id="g977">
</g>
<g
   id="g979">
</g>
<g
   id="g981">
</g>
<g
   id="g983">
</g>
<g
   id="g985">
</g>
<g
   id="g987">
</g>
<g
   id="g989">
</g>
<g
   id="g991">
</g>
<g
   id="g993">
</g>
<g
   id="g995">
</g>
<g
   id="g997">
</g>
</svg>