<?xml version="1.0" encoding="UTF-8" standalone="no"?>
<svg
   xmlns:dc="http://purl.org/dc/elements/1.1/"
   xmlns:cc="http://creativecommons.org/ns#"
   xmlns:rdf="http://www.w3.org/1999/02/22-rdf-syntax-ns#"
   xmlns:svg="http://www.w3.org/2000/svg"
   xmlns="http://www.w3.org/2000/svg"
   xmlns:sodipodi="http://sodipodi.sourceforge.net/DTD/sodipodi-0.dtd"
   xmlns:inkscape="http://www.inkscape.org/namespaces/inkscape"
   id="Capa_1"
   enable-background="new 0 0 511.996 511.996"
   height="512"
   viewBox="0 0 511.996 511.996"
   width="512"
   version="1.1"
   sodipodi:docname="equipo.svg"
   inkscape:version="0.92.4 (5da689c313, 2019-01-14)">
  <metadata
     id="metadata628">
    <rdf:RDF>
      <cc:Work
         rdf:about="">
        <dc:format>image/svg+xml</dc:format>
        <dc:type
           rdf:resource="http://purl.org/dc/dcmitype/StillImage" />
      </cc:Work>
    </rdf:RDF>
  </metadata>
  <defs
     id="defs626" />
  <sodipodi:namedview
     pagecolor="#ffffff"
     bordercolor="#666666"
     borderopacity="1"
     objecttolerance="10"
     gridtolerance="10"
     guidetolerance="10"
     inkscape:pageopacity="0"
     inkscape:pageshadow="2"
     inkscape:window-width="1920"
     inkscape:window-height="1017"
     id="namedview624"
     showgrid="false"
     inkscape:zoom="0.4609375"
     inkscape:cx="256"
     inkscape:cy="256"
     inkscape:window-x="-8"
     inkscape:window-y="-8"
     inkscape:window-maximized="1"
     inkscape:current-layer="g621" />
  <g
     id="g621">
    <path
       d="m 504.496,369.629 c 4.142,0 7.5,-3.357 7.5,-7.5 v -16.588 c 0,-25.103 -16.932,-47.17 -41.172,-53.663 L 418.763,277.92 v -19.785 c 18.411,-11.07 30.759,-31.239 30.759,-54.242 v -66.364 c 0,-19.737 -16.057,-35.794 -35.794,-35.794 h -1.894 C 408.648,91.714 399.256,84.433 388.194,84.433 h -14.146 c -15.477,0 -29.356,6.935 -38.722,17.851 C 330.302,81.178 311.302,65.429 288.68,65.429 h -5.756 C 279.707,54.902 269.903,47.223 258.337,47.223 h -16.183 c -35.318,0 -64.446,26.992 -67.849,61.429 -5.924,-4.344 -13.225,-6.917 -21.118,-6.917 h -1.894 C 148.106,91.714 138.715,84.433 127.653,84.433 h -14.145 c -28.137,0 -51.028,22.891 -51.028,51.027 v 68.433 c 0,23.003 12.347,43.172 30.759,54.242 v 19.784 L 41.176,291.878 C 16.932,298.371 0,320.438 0,345.541 v 19.793 c 0,4.143 3.358,7.5 7.5,7.5 4.142,0 7.5,-3.357 7.5,-7.5 v -19.793 c 0,-18.325 12.359,-34.435 30.057,-39.175 L 94.63,293.075 c 4.042,13.345 16.452,23.09 31.099,23.09 1.957,0 3.872,-0.184 5.735,-0.517 -4.521,8.308 -7.057,17.777 -7.057,27.701 v 26.149 c 0,4.143 3.358,7.5 7.5,7.5 4.142,0 7.5,-3.357 7.5,-7.5 v -26.149 c 0,-19.458 13.126,-36.565 31.92,-41.604 l 22.476,-6.024 c 0,0 4.989,17.765 5.158,18.224 3.266,9.401 18.405,47.701 49.852,53.095 v 82.733 h -55.8 v -53.186 c 0,-4.143 -3.358,-7.5 -7.5,-7.5 -4.142,0 -7.5,3.357 -7.5,7.5 v 53.186 h -38.606 v -45.335 c 0,-4.143 -3.358,-7.5 -7.5,-7.5 -4.142,0 -7.5,3.357 -7.5,7.5 V 419.43 H 65.944 v -11.725 c 0,-4.143 -3.358,-7.5 -7.5,-7.5 -4.142,0 -7.5,3.357 -7.5,7.5 V 419.43 H 15 v -19.025 c 0,-4.143 -3.358,-7.5 -7.5,-7.5 -4.142,0 -7.5,3.357 -7.5,7.5 v 26.525 c 0,4.143 3.358,7.5 7.5,7.5 h 116.907 v 22.843 c 0,4.143 3.358,7.5 7.5,7.5 H 380.72 c 4.142,0 7.5,-3.357 7.5,-7.5 v -22.841 h 116.276 c 4.142,0 7.5,-3.357 7.5,-7.5 v -29.833 c 0,-4.143 -3.358,-7.5 -7.5,-7.5 -4.142,0 -7.5,3.357 -7.5,7.5 v 22.333 h -35.94 v -11.727 c 0,-4.143 -3.358,-7.5 -7.5,-7.5 -4.142,0 -7.5,3.357 -7.5,7.5 v 11.727 H 388.22 v -76.084 c 0,-9.874 -2.509,-19.298 -6.987,-27.576 1.642,0.257 3.324,0.392 5.038,0.392 14.647,0 27.056,-9.744 31.099,-23.089 l 49.571,13.29 c 17.696,4.74 30.055,20.85 30.055,39.175 v 16.588 c 0,4.143 3.358,7.501 7.5,7.501 z M 386.271,252.142 c -23.949,0 -43.87,-17.542 -47.611,-40.45 v -17.185 c 8.534,-2.858 14.914,-10.448 16.009,-19.642 h 31.602 c 7.543,0 14.361,-3.146 19.224,-8.189 4.864,5.043 11.682,8.189 19.224,8.189 h 9.802 v 29.026 c 0,26.607 -21.645,48.251 -48.25,48.251 z m -86.307,55.473 c -0.066,0.205 -0.261,0.803 -0.587,1.714 -1.443,3.448 -4.254,6.016 -7.916,7.161 -4.205,1.314 -8.561,0.451 -11.946,-2.371 l -7.281,-6.067 c 7.933,-4.255 13.974,-11.586 16.532,-20.387 l 15.568,4.173 z m -77.448,-35.12 -33.549,8.992 0.013,-85.755 h 1.206 c 0.504,23.542 13.351,44.093 32.33,55.418 z m -48.549,-27.756 v 37.399 l -15.746,-4.22 v -19.784 c 5.957,-3.582 11.272,-8.12 15.746,-13.395 z m 7.5,-81.373 h 8.683 v 17.366 h -8.683 c -4.788,0 -8.683,-3.896 -8.683,-8.684 0,-4.788 3.895,-8.682 8.683,-8.682 z m 95.074,-8.791 c 4.809,5.134 11.54,8.447 19.036,8.766 l 11.868,32.211 c -0.669,27.633 -23.34,49.912 -51.132,49.912 -27.461,0 -49.93,-21.749 -51.106,-48.926 l 8.663,-12.661 c 8.787,-12.844 23.324,-20.511 38.886,-20.511 h 3.557 c 7.973,0 15.165,-3.387 20.228,-8.791 z m 54.619,8.791 c 4.788,0 8.683,3.895 8.683,8.683 0,4.788 -3.895,8.684 -8.683,8.684 h -8.683 v -17.366 h 8.683 z m -93.644,94.362 c 5.962,1.77 12.268,2.736 18.797,2.736 6.529,0 12.835,-0.966 18.797,-2.736 v 20.522 c 0,10.364 -8.433,18.797 -18.797,18.797 -10.364,0 -18.797,-8.433 -18.797,-18.797 z m 52.594,14.767 V 251.15 c 18.979,-11.326 31.826,-31.876 32.33,-55.418 h 1.219 v 85.755 z m 63.669,5.422 -15.119,4.052 v -36.508 c 4.342,4.967 9.437,9.256 15.119,12.673 z m 80.742,-140.389 v 22.338 h -9.802 c -6.465,0 -11.725,-5.26 -11.725,-11.725 v -31.407 h 0.732 c 11.467,0 20.795,9.328 20.795,20.794 z M 374.047,99.432 h 14.146 c 5.405,0 9.802,4.397 9.802,9.802 v 38.907 c 0,6.465 -5.259,11.725 -11.724,11.725 H 351.46 c -2.998,-4.976 -7.773,-8.764 -13.44,-10.483 V 135.46 c 0,-19.866 16.162,-36.028 36.027,-36.028 z m -52.41,13.953 v 34.98 h -6.66 c -3.532,0 -6.486,2.444 -7.282,5.732 -2.449,-3.519 -6.516,-5.732 -10.924,-5.732 -7.019,0 -12.729,-5.71 -12.729,-12.729 V 80.428 h 4.637 c 18.173,0 32.958,14.785 32.958,32.957 z M 242.153,62.222 h 16.183 c 5.903,0 10.706,4.803 10.706,10.706 v 62.709 c 0,7.019 -5.71,12.729 -12.729,12.729 h -3.557 c -18.486,0 -35.871,8.209 -47.606,22.218 v -14.718 c 0,-4.143 -3.358,-7.5 -7.5,-7.5 h -8.683 v -32.958 c 0,-29.326 23.859,-53.186 53.186,-53.186 z m -68.186,75.046 v 12.323 c -5.253,1.759 -9.69,5.309 -12.581,9.926 -5.119,-1.258 -8.932,-5.874 -8.932,-11.375 v -31.407 h 0.732 c 11.378,-0.001 20.639,9.188 20.781,20.533 z M 77.479,135.46 c 0,-19.865 16.162,-36.027 36.028,-36.027 h 14.145 c 5.405,0 9.802,4.397 9.802,9.802 v 38.907 c 0,6.465 -5.26,11.725 -11.725,11.725 h -48.25 z m 0,68.432 v -29.026 h 48.25 c 7.543,0 14.361,-3.146 19.224,-8.189 3.465,3.592 7.921,6.218 12.925,7.432 0.826,9.538 7.327,17.471 16.101,20.403 v 9.119 c -0.003,0.087 -0.013,0.781 -0.013,0.781 -0.281,26.366 -21.806,47.731 -48.237,47.731 -26.605,-0.001 -48.25,-21.645 -48.25,-48.251 z m 30.759,79.781 v -19.01 c 5.559,1.603 11.423,2.479 17.492,2.479 6.069,0 11.932,-0.877 17.492,-2.479 v 19.01 c 0,9.646 -7.847,17.492 -17.492,17.492 -9.645,0 -17.492,-7.847 -17.492,-17.492 z m 115.622,3.991 c 2.558,8.801 8.598,16.132 16.532,20.387 l -7.281,6.068 c -3.384,2.822 -7.739,3.686 -11.945,2.371 -3.663,-1.145 -6.474,-3.713 -7.917,-7.162 -0.329,-0.92 -0.525,-1.52 -0.588,-1.715 l -4.369,-15.776 z m 0.836,44.404 c 0.102,0.001 0.204,0.011 0.305,0.011 6.386,0 12.648,-2.217 17.713,-6.438 l 13.599,-11.333 13.599,11.333 c 5.065,4.222 11.327,6.438 17.713,6.438 0.101,0 0.203,-0.01 0.305,-0.011 -7.212,10.594 -17.706,20.607 -31.617,20.607 -13.911,10e-4 -24.405,-10.013 -31.617,-20.607 z M 373.22,449.773 h -38.606 v -53.186 c 0,-4.143 -3.358,-7.5 -7.5,-7.5 -4.142,0 -7.5,3.357 -7.5,7.5 v 53.186 H 263.813 V 367.04 c 31.447,-5.395 46.587,-43.695 49.852,-53.095 0.169,-0.459 5.158,-18.224 5.158,-18.224 l 22.476,6.024 c 18.794,5.038 31.92,22.146 31.92,41.604 v 106.424 z m 13.051,-148.608 c -9.645,0 -17.492,-7.847 -17.492,-17.492 v -19.01 c 5.559,1.603 11.423,2.479 17.492,2.479 6.069,0 11.932,-0.877 17.492,-2.479 v 19.01 c -10e-4,9.645 -7.847,17.492 -17.492,17.492 z"
       id="path619"
       style="fill:#fd9975;fill-opacity:1"
       inkscape:connector-curvature="0" />
  </g>
</svg>
