<?xml version="1.0" encoding="UTF-8" standalone="no"?>
<svg
   xmlns:dc="http://purl.org/dc/elements/1.1/"
   xmlns:cc="http://creativecommons.org/ns#"
   xmlns:rdf="http://www.w3.org/1999/02/22-rdf-syntax-ns#"
   xmlns:svg="http://www.w3.org/2000/svg"
   xmlns="http://www.w3.org/2000/svg"
   xmlns:sodipodi="http://sodipodi.sourceforge.net/DTD/sodipodi-0.dtd"
   xmlns:inkscape="http://www.inkscape.org/namespaces/inkscape"
   id="Icons"
   height="512"
   viewBox="0 0 74 74"
   width="512"
   version="1.1"
   sodipodi:docname="grafico-de-lineas.svg"
   inkscape:version="0.92.4 (5da689c313, 2019-01-14)">
  <metadata
     id="metadata855">
    <rdf:RDF>
      <cc:Work
         rdf:about="">
        <dc:format>image/svg+xml</dc:format>
        <dc:type
           rdf:resource="http://purl.org/dc/dcmitype/StillImage" />
      </cc:Work>
    </rdf:RDF>
  </metadata>
  <defs
     id="defs853" />
  <sodipodi:namedview
     pagecolor="#ffffff"
     bordercolor="#666666"
     borderopacity="1"
     objecttolerance="10"
     gridtolerance="10"
     guidetolerance="10"
     inkscape:pageopacity="0"
     inkscape:pageshadow="2"
     inkscape:window-width="1920"
     inkscape:window-height="1017"
     id="namedview851"
     showgrid="false"
     inkscape:zoom="0.828125"
     inkscape:cx="355.67239"
     inkscape:cy="106.27783"
     inkscape:window-x="-8"
     inkscape:window-y="-8"
     inkscape:window-maximized="1"
     inkscape:current-layer="Icons" />
  <path
     d="m47.24 67h-2.97a1 1 0 0 1 0-2h2.97a1 1 0 1 1 0 2z"
     id="path836"
     style="fill:#fd9975;fill-opacity:1" />
  <path
     d="m27.37 67h-24.37a1 1 0 0 1 0-2h24.37a1 1 0 1 1 0 2z"
     id="path838"
     style="fill:#fd9975;fill-opacity:1" />
  <path
     d="m37.27 67h-2.9a1 1 0 0 1 0-2h2.9a1 1 0 1 1 0 2z"
     id="path840"
     style="fill:#fd9975;fill-opacity:1" />
  <path
     d="m71 67h-16.76a1 1 0 0 1 0-2h15.76v-26a1 1 0 0 1 2 0v27a1 1 0 0 1 -1 1z"
     id="path842"
     style="fill:#fd9975;fill-opacity:1" />
  <path
     d="m8 42a1 1 0 0 1 -.707-1.707l19.5-19.5a1 1 0 0 1 1.415 0l18.242 18.242 12.8-14.692a.959.959 0 0 1 .776-.343 1 1 0 0 1 .761.382l11 14a1 1 0 0 1 -1.573 1.236l-10.253-13.05-12.707 14.589a1 1 0 0 1 -.719.343 1.011 1.011 0 0 1 -.742-.293l-18.293-18.293-18.792 18.793a1 1 0 0 1 -.708.293z"
     id="path844"
     style="fill:#fd9975;fill-opacity:1" />
  <path
     d="m8 59.75a1 1 0 0 1 -.707-1.707l19.5-19.5a1 1 0 0 1 1.415 0l18.242 18.242 12.8-14.692a.989.989 0 0 1 .779-.343 1 1 0 0 1 .761.382l11 14a1 1 0 0 1 -1.573 1.236l-10.256-13.05-12.707 14.589a1 1 0 0 1 -1.461.05l-18.293-18.293-18.792 18.793a1 1 0 0 1 -.708.293z"
     id="path846"
     style="fill:#fd9975;fill-opacity:1" />
  <path
     d="m8 72a1 1 0 0 1 -1-1v-68a1 1 0 0 1 2 0v68a1 1 0 0 1 -1 1z"
     id="path848"
     style="fill:#fd9975;fill-opacity:1" />
</svg>
