<?xml version="1.0" encoding="UTF-8" standalone="no"?>
<!-- Generator: Adobe Illustrator 19.0.0, SVG Export Plug-In . SVG Version: 6.00 Build 0)  -->

<svg
   xmlns:dc="http://purl.org/dc/elements/1.1/"
   xmlns:cc="http://creativecommons.org/ns#"
   xmlns:rdf="http://www.w3.org/1999/02/22-rdf-syntax-ns#"
   xmlns:svg="http://www.w3.org/2000/svg"
   xmlns="http://www.w3.org/2000/svg"
   xmlns:sodipodi="http://sodipodi.sourceforge.net/DTD/sodipodi-0.dtd"
   xmlns:inkscape="http://www.inkscape.org/namespaces/inkscape"
   version="1.1"
   id="Capa_1"
   x="0px"
   y="0px"
   viewBox="0 0 480 480"
   style="enable-background:new 0 0 480 480;"
   xml:space="preserve"
   sodipodi:docname="organigrama.svg"
   inkscape:version="0.92.4 (5da689c313, 2019-01-14)"><metadata
   id="metadata311"><rdf:RDF><cc:Work
       rdf:about=""><dc:format>image/svg+xml</dc:format><dc:type
         rdf:resource="http://purl.org/dc/dcmitype/StillImage" /></cc:Work></rdf:RDF></metadata><defs
   id="defs309" /><sodipodi:namedview
   pagecolor="#ffffff"
   bordercolor="#666666"
   borderopacity="1"
   objecttolerance="10"
   gridtolerance="10"
   guidetolerance="10"
   inkscape:pageopacity="0"
   inkscape:pageshadow="2"
   inkscape:window-width="1920"
   inkscape:window-height="1017"
   id="namedview307"
   showgrid="false"
   inkscape:zoom="0.49166667"
   inkscape:cx="240"
   inkscape:cy="240"
   inkscape:window-x="-8"
   inkscape:window-y="-8"
   inkscape:window-maximized="1"
   inkscape:current-layer="g274" />
<g
   id="g274">
	<g
   id="g272"
   style="fill:#fd9975;fill-opacity:1">
		<path
   d="m 472,336 h -32 v -32 c 0,-4.418 -3.582,-8 -8,-8 h -56 v -24 h 40 c 4.418,0 8,-3.582 8,-8 v -48 c 0,-4.418 -3.582,-8 -8,-8 h -40 v -32 c 0,-4.418 -3.582,-8 -8,-8 H 248 v -24 h 40 c 4.418,0 8,-3.582 8,-8 V 88 c 0,-4.418 -3.582,-8 -8,-8 h -96 c -4.418,0 -8,3.582 -8,8 v 48 c 0,4.418 3.582,8 8,8 h 40 v 24 H 112 c -4.418,0 -8,3.582 -8,8 v 32 H 64 c -4.418,0 -8,3.582 -8,8 v 48 c 0,4.418 3.582,8 8,8 h 40 v 24 H 48 c -4.418,0 -8,3.582 -8,8 v 32 H 8 c -4.418,0 -8,3.582 -8,8 v 48 c 0,4.418 3.582,8 8,8 h 80 c 4.418,0 8,-3.582 8,-8 v -48 c 0,-4.418 -3.582,-8 -8,-8 H 56 v -24 h 112 v 24 h -32 c -4.418,0 -8,3.582 -8,8 v 48 c 0,4.418 3.582,8 8,8 h 80 c 4.418,0 8,-3.582 8,-8 v -48 c 0,-4.418 -3.582,-8 -8,-8 h -32 v -32 c 0,-4.418 -3.582,-8 -8,-8 h -56 v -24 h 40 c 4.418,0 8,-3.582 8,-8 v -48 c 0,-4.418 -3.582,-8 -8,-8 h -40 v -24 h 240 v 24 h -40 c -4.418,0 -8,3.582 -8,8 v 48 c 0,4.418 3.582,8 8,8 h 40 v 24 h -56 c -4.418,0 -8,3.582 -8,8 v 32 h -32 c -4.418,0 -8,3.582 -8,8 v 48 c 0,4.418 3.582,8 8,8 h 80 c 4.418,0 8,-3.582 8,-8 v -48 c 0,-4.418 -3.582,-8 -8,-8 h -32 v -24 h 112 v 24 h -32 c -4.418,0 -8,3.582 -8,8 v 48 c 0,4.418 3.582,8 8,8 h 80 c 4.418,0 8,-3.582 8,-8 v -48 c 0,-4.418 -3.582,-8 -8,-8 z M 80,352 v 32 H 16 v -32 z m 128,0 v 32 H 144 V 352 Z M 152,224 v 32 H 72 v -32 z m 48,-96 V 96 h 80 v 32 z m 136,224 v 32 h -64 v -32 z m -8,-96 v -32 h 80 v 32 z m 136,128 h -64 v -32 h 64 z"
   id="path270"
   inkscape:connector-curvature="0" />
	</g>
</g>
<g
   id="g276">
</g>
<g
   id="g278">
</g>
<g
   id="g280">
</g>
<g
   id="g282">
</g>
<g
   id="g284">
</g>
<g
   id="g286">
</g>
<g
   id="g288">
</g>
<g
   id="g290">
</g>
<g
   id="g292">
</g>
<g
   id="g294">
</g>
<g
   id="g296">
</g>
<g
   id="g298">
</g>
<g
   id="g300">
</g>
<g
   id="g302">
</g>
<g
   id="g304">
</g>
</svg>