<?xml version="1.0" encoding="UTF-8" standalone="no"?>
<!-- Generator: Adobe Illustrator 19.0.0, SVG Export Plug-In . SVG Version: 6.00 Build 0)  -->

<svg
   xmlns:dc="http://purl.org/dc/elements/1.1/"
   xmlns:cc="http://creativecommons.org/ns#"
   xmlns:rdf="http://www.w3.org/1999/02/22-rdf-syntax-ns#"
   xmlns:svg="http://www.w3.org/2000/svg"
   xmlns="http://www.w3.org/2000/svg"
   xmlns:sodipodi="http://sodipodi.sourceforge.net/DTD/sodipodi-0.dtd"
   xmlns:inkscape="http://www.inkscape.org/namespaces/inkscape"
   version="1.1"
   id="Capa_1"
   x="0px"
   y="0px"
   viewBox="0 0 480.032 480.032"
   style="enable-background:new 0 0 480.032 480.032;"
   xml:space="preserve"
   bordercolor="#666666"
   sodipodi:docname="planos.svg"
   inkscape:version="0.92.4 (5da689c313, 2019-01-14)"><metadata
   id="metadata3901"><rdf:RDF><cc:Work
       rdf:about=""><dc:format>image/svg+xml</dc:format><dc:type
         rdf:resource="http://purl.org/dc/dcmitype/StillImage" /></cc:Work></rdf:RDF></metadata><defs
   id="defs3899" /><sodipodi:namedview
   pagecolor="#ffffff"
   bordercolor="#666666"
   borderopacity="1"
   objecttolerance="10"
   gridtolerance="10"
   guidetolerance="10"
   inkscape:pageopacity="0"
   inkscape:pageshadow="2"
   inkscape:window-width="1920"
   inkscape:window-height="1017"
   id="namedview3897"
   showgrid="false"
   inkscape:zoom="1.7665488"
   inkscape:cx="204.07021"
   inkscape:cy="240.01601"
   inkscape:window-x="-8"
   inkscape:window-y="-8"
   inkscape:window-maximized="1"
   inkscape:current-layer="Capa_1" />
<g
   id="g3828"
   style="fill:#fd9975;fill-opacity:1">
	<g
   id="g3826">
		<path
   d="m 472.032,64.016 c -0.011,0 -0.021,0 -0.032,0 h -32 v 16 h 24 v 232 h -48 c -4.418,0 -8,3.582 -8,8 v 48 H 296 v 16 h 120 c 2.121,-0.005 4.154,-0.847 5.656,-2.344 l 56,-56 c 0.669,-0.68 1.211,-1.474 1.6,-2.344 0.112,-0.248 0.176,-0.488 0.264,-0.744 0.23,-0.672 0.37,-1.371 0.416,-2.08 0,-0.168 0.096,-0.32 0.096,-0.488 v -248 c 0,-4.418 -3.582,-8 -8,-8 z M 424,356.704 v -28.688 h 28.688 z"
   id="path3824"
   inkscape:connector-curvature="0" />
	</g>
</g>
<g
   id="g3834"
   style="fill:#fd9975;fill-opacity:1">
	<g
   id="g3832">
		<path
   d="m 32,336.016 h 24 c 4.418,0 8,-3.582 8,-8 v -248 h 272 v -16 H 64 v -40 c 0,-4.418 -3.582,-8 -8,-8 H 32 c -17.673,0 -32,14.327 -32,32 v 304 c 0,17.673 14.327,32 32,32 h 48 v -16 H 32 c -8.837,0 -16,-7.163 -16,-16 0,-8.837 7.163,-16 16,-16 z m -16,-288 c 0,-8.837 7.163,-16 16,-16 h 16 v 288 H 32 c -5.619,-0.009 -11.141,1.474 -16,4.296 z"
   id="path3830"
   inkscape:connector-curvature="0" />
	</g>
</g>
<g
   id="g3840"
   style="fill:#fd9975;fill-opacity:1">
	<g
   id="g3838">
		<path
   d="m 416,16.016 h -56 c -4.418,0 -8,3.582 -8,8 v 256 c 0,4.418 3.582,8 8,8 h 56 c 4.418,0 8,-3.582 8,-8 v -256 c 0,-4.418 -3.582,-8 -8,-8 z m -8,256 h -40 v -16 h 16 v -16 h -16 v -16 h 16 v -16 h -16 v -16 h 16 v -16 h -16 v -16 h 16 v -16 h -16 v -16 h 16 v -16 h -16 v -16 h 16 v -16 h -16 v -16 h 16 v -16 h -16 v -16 h 40 z"
   id="path3836"
   inkscape:connector-curvature="0" />
	</g>
</g>
<g
   id="g3846"
   style="fill:#fd9975;fill-opacity:1">
	<g
   id="g3844">
		<path
   d="m 341.656,450.36 -232,-232 c -2.288,-2.289 -5.73,-2.975 -8.72,-1.736 -2.989,1.239 -4.937,4.157 -4.936,7.392 v 232 c 0,4.418 3.582,8 8,8 h 232 c 4.418,-0.001 7.999,-3.583 7.998,-8.002 0,-2.12 -0.843,-4.154 -2.342,-5.654 z M 112,448.016 V 243.328 L 316.688,448.016 H 112 Z"
   id="path3842"
   inkscape:connector-curvature="0" />
	</g>
</g>
<g
   id="g3852"
   style="fill:#fd9975;fill-opacity:1">
	<g
   id="g3850">
		<path
   d="m 245.656,410.36 -96,-96 c -3.125,-3.124 -8.19,-3.123 -11.314,0.002 -1.499,1.5 -2.342,3.534 -2.342,5.654 v 96 c 0,4.418 3.582,8 8,8 h 96 c 4.418,-0.001 7.999,-3.583 7.998,-8.002 0,-2.12 -0.843,-4.154 -2.342,-5.654 z M 152,408.016 v -68.688 l 68.688,68.688 z"
   id="path3848"
   inkscape:connector-curvature="0" />
	</g>
</g>
<g
   id="g3858"
   stylle="fill:#fd9975;fill-opacity:1">
	<g
   id="g3856"
   style="fill:#fd9975;fill-opacity:1">
		<path
   d="m 296,120.016 c -13.255,0 -24,10.745 -24,24 v 176 c 0,2.122 0.844,4.156 2.344,5.656 l 16,16 c 3.124,3.123 8.188,3.123 11.312,0 l 16,-16 c 1.5,-1.5 2.344,-3.534 2.344,-5.656 v -176 c 0,-13.255 -10.745,-24 -24,-24 z m 8,196.688 -8,8 -8,-8 V 168.016 h 16 z m 0,-164.688 h -16 v -8 c 0,-4.418 3.582,-8 8,-8 4.418,0 8,3.582 8,8 z"
   id="path3854"
   inkscape:connector-curvature="0" />
	</g>
</g>
<g
   id="g3864">
	<g
   id="g3862"
   style="fill:#fd9975;fill-opacity:1">
		<path
   d="m 232,120.016 h -56 c -17.673,0 -32,14.327 -32,32 0,17.673 14.327,32 32,32 h 8 48 c 4.418,0 8,-3.582 8,-8 v -48 c 0,-4.418 -3.582,-8 -8,-8 z m -56,48 c -8.837,0 -16,-7.163 -16,-16 0,-8.837 7.163,-16 16,-16 z m 48,0 h -32 v -32 h 32 z"
   id="path3860"
   inkscape:connector-curvature="0" />
	</g>
</g>
<g
   id="g3866">
</g>
<g
   id="g3868">
</g>
<g
   id="g3870">
</g>
<g
   id="g3872">
</g>
<g
   id="g3874">
</g>
<g
   id="g3876">
</g>
<g
   id="g3878">
</g>
<g
   id="g3880">
</g>
<g
   id="g3882">
</g>
<g
   id="g3884">
</g>
<g
   id="g3886">
</g>
<g
   id="g3888">
</g>
<g
   id="g3890">
</g>
<g
   id="g3892">
</g>
<g
   id="g3894">
</g>
</svg>