<?xml version="1.0" encoding="UTF-8" standalone="no"?>
<!-- Generator: Adobe Illustrator 18.1.1, SVG Export Plug-In . SVG Version: 6.00 Build 0)  -->

<svg
   xmlns:dc="http://purl.org/dc/elements/1.1/"
   xmlns:cc="http://creativecommons.org/ns#"
   xmlns:rdf="http://www.w3.org/1999/02/22-rdf-syntax-ns#"
   xmlns:svg="http://www.w3.org/2000/svg"
   xmlns="http://www.w3.org/2000/svg"
   xmlns:sodipodi="http://sodipodi.sourceforge.net/DTD/sodipodi-0.dtd"
   xmlns:inkscape="http://www.inkscape.org/namespaces/inkscape"
   version="1.1"
   x="0px"
   y="0px"
   viewBox="0 0 1918 934.99997"
   enable-background="new 0 0 1454 369.6"
   xml:space="preserve"
   id="svg4508"
   sodipodi:docname="bggob01.svg"
   inkscape:version="0.92.4 (5da689c313, 2019-01-14)"
   width="1918"
   height="935"><metadata
   id="metadata4514"><rdf:RDF><cc:Work
       rdf:about=""><dc:format>image/svg+xml</dc:format><dc:type
         rdf:resource="http://purl.org/dc/dcmitype/StillImage" /><dc:title></dc:title></cc:Work></rdf:RDF></metadata><defs
   id="defs4512" /><sodipodi:namedview
   pagecolor="#ffffff"
   bordercolor="#666666"
   borderopacity="1"
   objecttolerance="10"
   gridtolerance="10"
   guidetolerance="10"
   inkscape:pageopacity="0"
   inkscape:pageshadow="2"
   inkscape:window-width="1920"
   inkscape:window-height="1017"
   id="namedview4510"
   showgrid="false"
   inkscape:zoom="0.42917589"
   inkscape:cx="384.03114"
   inkscape:cy="267.12971"
   inkscape:window-x="-8"
   inkscape:window-y="-8"
   inkscape:window-maximized="1"
   inkscape:current-layer="svg4508" />
<g
   id="Ejemplo"
   transform="translate(0,565.39997)">
</g>
<g
   id="Guías"
   transform="translate(0,565.39997)">
</g>
<g
   id="Fondo_1_"
   transform="translate(0,565.39997)">
	<g
   id="Fondo">
	</g>
	<g
   id="Estrellas">
	</g>
</g>
<g
   id="Colores"
   transform="translate(0,565.39997)">
</g>
<g
   id="Ilustración"
   transform="matrix(1.3216556,0,0,1.2643964,0.22886908,338.63372)">
	<g
   id="Atras">
	</g>
	<g
   id="Medio">
	</g>
	<g
   id="Adelante">
		<g
   id="g4470">
			<g
   id="g4181">
				<path
   d="m 1148.5,368.6 c -15.8,-8 -20.9,-18.1 -75.3,-18.1 -76.9,0 -145.2,-17.6 -191.2,-8.8 -46,8.8 -161.2,-8 -210.2,-8 -49,0 -49.8,-22.2 -89.2,-26.1 -42.7,-4.3 -46.3,14 -74.8,13 -28.5,-0.9 -58.2,-37 -70.1,-36.1 -12,0.8 -29.8,1.7 -40,2 -10.2,0.2 -17.2,-14.2 -36.6,-20.4 -5.9,-1.9 -16.6,-3.4 -30.9,-4.1 l -35.9,-16.8 c -6.8,-0.6 -9.8,-9 -15.9,-14.2 -18.8,-15.9 -15.6,-12.9 -24.5,-24.7 -3.9,-5.2 -3.5,-3.1 -33.8,-33.4 -9.7,-9.7 -10.8,-26 -22.8,-33.8 -3.9,-2.5 -8.7,-3.9 -12.1,-7.1 -3.9,-3.8 -6.7,-8.8 -10.3,-12.8 -5.7,-6.3 -11.6,-12.5 -20.2,-14.2 -4.7,-0.9 -9.5,-1.1 -14.1,-2.3 -5.6,-1.5 -9.7,-5.5 -14.9,-7.6 C 120.4,93 114.5,92.7 109.4,90 104.7,87.5 101.9,83.5 98.5,79.7 95.7,76.6 92.4,74 89.7,70.8 88.1,68.9 80.8,67 80.8,64.5 80.8,62.1 70.8,50.5 69.2,48.2 67.6,45.9 67,45.4 65.6,40.8 64.2,36.2 58.1,36.3 58.1,36.3 L 47,35.5 l -5.7,4.4 -5.7,4 -4.9,6.1 c 0,0 -6.6,1.4 -7.8,4 L 14,73.7 c -2.5,7.1 -1.4,-1.1 -13,20.2 0,0 0,0.7 -1,1.8 v 272.8 h 1148.5 z"
   id="path4179"
   inkscape:connector-curvature="0"
   style="fill:#e1474d" />
			</g>
			<g
   id="g4185">
				<path
   d="m 1440,49.5 c -6.9,-1.6 -42,6.5 -48.9,9.8 -7.9,3.8 -11.3,8.2 -16.2,15.5 -4,6.1 -9.8,10.9 -16.5,13.8 -26.1,11.2 -48.6,4.2 -73.4,15.9 -22.3,10.5 -31.1,36.4 -43.5,55.9 -19.5,30.7 -45.3,28.2 -76.7,40.2 -21.2,8.2 -28.7,30.2 -40.7,47.5 -16.5,23.7 -40.6,22.6 -64.7,34.1 -22.7,10.9 -42.9,26.9 -67.2,34.7 -34.7,11.2 -71.3,13.6 -107.4,16.3 -48.8,3.7 -98.4,1.2 -147.2,-0.8 -11.5,-0.5 -23.1,-1.4 -34.6,-0.9 -29.2,1.1 -58.4,2.2 -87.5,3.7 -6.6,0.3 -13.3,0.7 -19.9,1.1 -12.7,0.9 -17,12.9 -29.4,13.5 -15.3,0.8 -32.8,6 -38.1,6.2 -9.7,0.4 -17.6,-8.3 -25.6,-8.3 -6,0 -5,-21.6 -14.6,-23.9 -3.1,-0.7 -21.3,-14.5 -24.7,-14.4 -13.7,0.6 -21.1,33.1 -26.8,37.6 -6.8,5.5 -33.2,6.4 -33.2,6.4 l -10.6,15.1 H 1454 V 50.6 c -5,-0.1 -9.3,-0.1 -14,-1.1 z"
   id="path4183"
   inkscape:connector-curvature="0"
   style="fill:#e1474d" />
			</g>
			<g
   id="g4189">
				<path
   d="m 1454,122.4 c -5,-0.2 -9.3,-0.1 -14,-1.2 -6.9,-1.6 -28.7,-3.4 -35.5,-0.2 -7.9,3.7 -37.9,20.9 -44.5,23.7 -4.6,1.9 -17.2,37.5 -40.9,33.8 -11.6,-3.9 -43.9,20.1 -49.4,29.1 -14.5,23.7 -43.2,46.2 -69.4,52.1 -49.2,11 -80.4,9.9 -104.4,38 -18.5,21.8 -50,33.3 -80.9,33.3 -35,0 -45.6,19.6 -57.7,37.6 H 1454 Z"
   id="path4187"
   inkscape:connector-curvature="0"
   style="fill:#c1272d" />
			</g>
			<g
   id="g4193">
				<path
   d="m 1454,214.4 c -8,-1.5 -28.1,-3.2 -34.7,0 -7.9,3.7 -37.9,20.9 -44.5,23.7 -4.6,1.9 -17.2,37.5 -40.9,33.8 -11.6,-3.9 -43.9,20.1 -49.4,29.1 -14.5,23.7 -43.2,46.1 -69.4,52 -29.7,6.6 -52.9,8.7 -71.9,15.7 H 1454 Z"
   id="path4191"
   inkscape:connector-curvature="0"
   style="fill:#a50b11" />
			</g>
			<g
   id="g4251">
				<g
   id="g4249">
					<circle
   id="XMLID_2046_"
   cx="1347.4"
   cy="120.2"
   r="16.799999"
   style="fill:#fd6868" />
					<g
   id="g4244">
						<g
   id="g4242">
							<g
   id="Arbol_112_">
								<circle
   id="XMLID_2045_"
   cx="1232.8"
   cy="211.10001"
   r="8.6999998"
   style="fill:#fd6868" />
								<circle
   id="XMLID_2044_"
   cx="1241.6"
   cy="212.8"
   r="5.5"
   style="fill:#fd6868" />
								<circle
   id="XMLID_2043_"
   cx="1224.1"
   cy="212.8"
   r="5.5"
   style="fill:#fd6868" />
								<circle
   id="XMLID_2042_"
   cx="1226.6"
   cy="206.2"
   r="3.8"
   style="fill:#fd6868" />
								<circle
   id="XMLID_2041_"
   cx="1234.9"
   cy="204.10001"
   r="2.4000001"
   style="fill:#fd6868" />
								<circle
   id="XMLID_2040_"
   cx="1239.8"
   cy="206.2"
   r="3.8"
   style="fill:#fd6868" />
								<rect
   id="XMLID_2039_"
   x="1231.2"
   y="214.2"
   width="3.2"
   height="38.900002"
   style="fill:#fd6868" />
							</g>
							<g
   id="Arbol_111_">
								<circle
   id="XMLID_2038_"
   cx="1326.5"
   cy="133.7"
   r="8.6999998"
   style="fill:#fd6868" />
								<circle
   id="XMLID_2037_"
   cx="1317.7"
   cy="135.39999"
   r="5.5"
   style="fill:#fd6868" />
								<circle
   id="XMLID_2036_"
   cx="1335.2"
   cy="135.39999"
   r="5.5"
   style="fill:#fd6868" />
								<circle
   id="XMLID_2035_"
   cx="1332.8"
   cy="128.8"
   r="3.8"
   style="fill:#fd6868" />
								<circle
   id="XMLID_2034_"
   cx="1324.4"
   cy="126.7"
   r="2.4000001"
   style="fill:#fd6868" />
								<circle
   id="XMLID_2033_"
   cx="1319.5"
   cy="128.8"
   r="3.8"
   style="fill:#fd6868" />
								<rect
   id="XMLID_2032_"
   x="1324.9"
   y="136.8"
   width="3.2"
   height="38.900002"
   style="fill:#fd6868" />
							</g>
							<circle
   id="XMLID_2031_"
   cx="1247"
   cy="158.2"
   r="10.6"
   style="fill:#fd6868" />
							<circle
   id="XMLID_2030_"
   cx="1263.4"
   cy="164.89999"
   r="9.6000004"
   style="fill:#fd6868" />
							<circle
   id="XMLID_2029_"
   cx="1290.5"
   cy="166"
   r="19.299999"
   style="fill:#fd6868" />
							<circle
   id="XMLID_2028_"
   cx="1317.3"
   cy="106.3"
   r="9.1999998"
   style="fill:#fd6868" />
							<circle
   id="XMLID_2027_"
   cx="1329.4"
   cy="102.4"
   r="9.8999996"
   style="fill:#fd6868" />
							<circle
   id="XMLID_2026_"
   cx="1340.6"
   cy="99.5"
   r="6.6999998"
   style="fill:#fd6868" />
							<circle
   id="XMLID_2025_"
   cx="1364.2"
   cy="101.7"
   r="7"
   style="fill:#fd6868" />
							<circle
   id="XMLID_2024_"
   cx="1376.6"
   cy="106"
   r="8.8999996"
   style="fill:#fd6868" />
							<circle
   id="XMLID_2023_"
   cx="1251"
   cy="184.89999"
   r="7.4000001"
   style="fill:#fd6868" />
							<circle
   id="XMLID_2022_"
   cx="1243"
   cy="190.10001"
   r="11.7"
   style="fill:#fd6868" />
							<circle
   id="XMLID_2021_"
   cx="1232.9"
   cy="198.8"
   r="6.9000001"
   style="fill:#fd6868" />
							<circle
   id="XMLID_2020_"
   cx="1218.9"
   cy="198.10001"
   r="9.6000004"
   style="fill:#fd6868" />
							<circle
   id="XMLID_2019_"
   cx="1198.5"
   cy="207.3"
   r="13.5"
   style="fill:#fd6868" />
							<circle
   id="XMLID_2018_"
   cx="1187.5"
   cy="201.2"
   r="8.6999998"
   style="fill:#fd6868" />
							<circle
   id="XMLID_2017_"
   cx="1180.7"
   cy="216.5"
   r="11.9"
   style="fill:#fd6868" />
							<circle
   id="XMLID_2016_"
   cx="1168"
   cy="210.5"
   r="5"
   style="fill:#fd6868" />
							<circle
   id="XMLID_2015_"
   cx="1170.4"
   cy="227.60001"
   r="13.2"
   style="fill:#fd6868" />
							<circle
   id="XMLID_2014_"
   cx="1157.9"
   cy="222.7"
   r="5.6999998"
   style="fill:#fd6868" />
							<circle
   id="XMLID_2013_"
   cx="1149.8"
   cy="229.5"
   r="7.3000002"
   style="fill:#fd6868" />
							<ellipse
   id="XMLID_2012_"
   cx="1309.8"
   cy="115.5"
   rx="9.6999998"
   ry="8.3999996"
   style="fill:#fd6868" />
							<circle
   id="XMLID_2011_"
   cx="1327.1"
   cy="119.6"
   r="11.6"
   style="fill:#fd6868" />
							<circle
   id="XMLID_2010_"
   cx="1367"
   cy="115.5"
   r="18.799999"
   style="fill:#fd6868" />
							<circle
   id="XMLID_2009_"
   cx="1243.8"
   cy="207.2"
   r="13.1"
   style="fill:#fd6868" />
							<circle
   id="XMLID_2008_"
   cx="1306"
   cy="135.3"
   r="20.5"
   style="fill:#fd6868" />
							<circle
   id="XMLID_2007_"
   cx="1390.3"
   cy="79.300003"
   r="9.1999998"
   style="fill:#fd6868" />
							<circle
   id="XMLID_2006_"
   cx="1382.3"
   cy="87.300003"
   r="9.1999998"
   style="fill:#fd6868" />
							<circle
   id="XMLID_2005_"
   cx="1402.4"
   cy="75.400002"
   r="9.8999996"
   style="fill:#fd6868" />
							<circle
   id="XMLID_2004_"
   cx="1413.6"
   cy="72.5"
   r="6.6999998"
   style="fill:#fd6868" />
							<circle
   id="XMLID_2003_"
   cx="1400.1"
   cy="92.599998"
   r="11.6"
   style="fill:#fd6868" />
							<circle
   id="XMLID_2002_"
   cx="1379"
   cy="108.3"
   r="20.5"
   style="fill:#fd6868" />
						</g>
					</g>
					<rect
   id="XMLID_2001_"
   x="1168.9"
   y="233"
   width="3.2"
   height="38.900002"
   style="fill:#fd6868" />
					<rect
   id="XMLID_2000_"
   x="1245.5"
   y="161.3"
   width="3.2"
   height="38.900002"
   style="fill:#fd6868" />
					<rect
   id="XMLID_1999_"
   x="1345.5"
   y="124.1"
   width="3.2"
   height="38.900002"
   style="fill:#fd6868" />
				</g>
			</g>
			<path
   id="XMLID_1186_"
   d="m 1238.3,82.1 c 0,0 0.4,0.1 0,-0.5 -0.5,-0.6 -0.2,-2.7 -0.2,-2.7 v -0.8 l -1,-1.4 -1.8,-4.8 c 0,0 -0.7,1.3 -0.3,2.3 l -0.9,-0.3 v 0.5 l 0.2,-0.1 -1.7,-2.4 c 0,0 -0.1,0 0,0.3 0.1,0.3 0.5,1.6 0.9,2 l -1.3,-1.1 c 0,0 -0.2,0 -0.1,0.3 0.1,0.3 0.2,0.7 0.4,1 0,0 -0.4,-0.3 -0.5,0.1 -0.1,0.3 0,0.7 0,0.7 l 0.1,0.1 c 0,0 -0.3,-0.2 -0.5,0.2 -0.2,0.3 0.5,0.8 0.5,0.8 0,0 -0.7,-0.2 -0.8,0.2 -0.1,0.3 0.5,0.8 0.5,0.8 0,0 -0.4,-0.1 -0.6,0.1 -0.1,0.3 0,0.5 0.6,0.7 0,0 -0.6,0 -0.6,0.3 0,0.3 0.3,0.5 0.7,0.5 0,0 -0.6,0.1 -0.6,0.8 h 0.1 c 0,0 -0.3,0.4 0,0.6 0,0 -0.4,0.3 0,0.7 0,0 -0.1,0.6 0.1,0.5 0,0 -0.1,0.5 0.1,0.5 0,0 -0.1,0.5 0.1,0.7 0,0 0,0.6 0.4,0.5 0,0 0,0.3 0.2,0.3 0,0 0,0.3 0.2,0.4 l -2.7,0.2 c 0,0 -0.4,0.1 -0.1,0.3 0.3,0.2 1.1,0.2 1.2,0.2 l -2.7,0.8 c 0,0 -0.4,0.2 -0.1,0.3 0.3,0.2 1.8,-0.2 1.8,-0.2 l -3,1.5 c 0,0 -0.3,0.2 0.2,0.3 0.4,0 0.9,-0.1 0.9,-0.1 l -2.3,1.3 c 0,0 -0.4,0.2 0.1,0.2 0.5,0 1.2,-0.4 1.2,-0.4 l -3.1,2 c 0,0 -0.2,0.2 0.1,0.2 0.3,0 -1.8,1 -1.8,1 0,0 -0.5,0.7 1.7,-0.2 2.2,-0.9 2.4,-1 2.4,-1 l -1.4,1.1 c 0,0 -0.5,0.4 0,0.2 0.5,-0.2 3.1,-1.7 3.1,-1.7 l -0.8,0.8 c 0,0 -0.3,0.4 0.2,0.2 0.4,-0.2 2.4,-1.6 2.4,-1.6 0,0 0,0.1 0.3,-0.1 0.3,-0.1 1.3,-0.8 1.3,-0.8 0,0 0.1,0.2 0.5,-0.2 0.4,-0.3 2.4,-2.3 2.4,-2.3 0,0 -0.2,0.3 0.3,0.5 0,0 -0.2,0.4 0.3,0.5 0,0 -0.2,0.4 0.4,0.5 0,0 0.1,0.3 0.5,0.4 0,0 0,0.2 0.5,0.3 0,0 0,0.3 0.4,0.3 0,0 0,0.3 0.5,0.3 0,0 0.1,0.3 0.6,0.1 0,0 0.3,0.1 0.5,0 0,0 0.1,0.4 0.6,0.2 0,0 0.3,0.4 0.9,0.2 0,0 0.4,0.4 0.8,0.1 l 0.2,-0.2 c 0,0 0.4,0.4 0.8,0.3 0.4,-0.1 0.3,-0.3 0.3,-0.3 0,0 0.6,0.4 1,0.3 l 0.1,-0.3 c 0,0 0.8,0.5 1.2,0.4 l -0.2,-0.8 c 0,0 0.7,0.6 1.3,0.4 l -0.5,-0.9 c 0,0 0.8,0.2 1.1,0.1 l -0.6,-0.4 c 0,0 0.6,0.3 0.9,0.1 l -2.9,-1.6 c 0,0 -0.1,-0.5 -1.5,-1 -1.4,-0.6 -2.4,-1.5 -2.4,-1.5 0,0 0.5,0.1 0.8,-0.1 0.3,-0.1 0.9,-0.7 0.9,-0.7 0,0 0.3,-0.1 0.3,0.1 v 0.2 c 0,0 0.1,0 0.3,-0.2 0.1,-0.2 0.2,-0.4 0.1,-0.8 0,0 0.2,-0.1 0,-0.3 -0.2,-0.2 -0.6,-0.4 -1.6,-0.2 -1.3,0.1 -1.9,0.2 -1.9,0.2 z"
   inkscape:connector-curvature="0"
   style="fill:#b9090b" />
			<path
   id="XMLID_1185_"
   d="m 1244.5,109.9 c 0,0 -0.4,0.1 -0.7,-0.3 -0.3,-0.4 -0.8,-1.8 -0.8,-1.8 v -0.5 -0.9 l -0.9,-3.2 c 0,0 -0.2,0.9 0.2,1.5 l -0.3,-0.2 v 0.3 -0.1 l -1.2,-1.6 c 0,0 -0.1,0 -0.1,0.2 0,0.2 0.3,1 0.6,1.3 l -0.9,-0.7 c 0,0 -0.1,0 -0.1,0.2 0,0.2 0.1,0.5 0.2,0.7 0,0 -0.3,-0.2 -0.3,0.1 0,0.3 0,0.5 0,0.5 l 0.1,0.1 c 0,0 -0.2,-0.1 -0.3,0.1 -0.1,0.2 0.3,0.5 0.3,0.5 0,0 -0.5,-0.1 -0.5,0.1 0,0.2 0.3,0.5 0.3,0.5 0,0 -0.3,-0.1 -0.4,0.1 -0.1,0.2 0,0.3 0.4,0.4 0,0 -0.4,0 -0.4,0.2 0,0.2 0.2,0.3 0.5,0.3 0,0 -0.4,0.1 -0.4,0.5 h 0.1 c 0,0 -0.2,0.3 0,0.4 0,0 -0.3,0.2 0,0.4 0,0 -0.1,0.4 0.1,0.3 0,0 -0.1,0.4 0.1,0.3 0,0 -0.1,0.3 0.1,0.4 0,0 0,0.4 0.2,0.4 0,0 0,0.2 0.2,0.2 0,0 0,0.2 0.1,0.2 l -1.8,0.2 c 0,0 -0.3,0.1 -0.1,0.2 0.2,0.1 0.8,0.1 0.8,0.1 l -1.8,0.5 c 0,0 -0.3,0.1 -0.1,0.2 0.2,0.1 1.2,-0.1 1.2,-0.1 l -2,1 c 0,0 -0.2,0.2 0.1,0.2 0.3,0 0.6,-0.1 0.6,-0.1 l -1.5,0.9 c 0,0 -0.2,0.2 0.1,0.2 0.3,0 0.8,-0.2 0.8,-0.2 l -2.1,1.3 c 0,0 -0.1,0.1 0.1,0.1 0.2,0 -1.2,0.7 -1.2,0.7 0,0 -0.3,0.4 1.1,-0.2 1.4,-0.6 1.6,-0.7 1.6,-0.7 l -0.9,0.7 c 0,0 -0.3,0.3 0,0.2 0.3,-0.1 2.1,-1.1 2.1,-1.1 l -0.5,0.5 c 0,0 -0.2,0.2 0.1,0.1 0.3,-0.1 1.6,-1 1.6,-1 0,0 0,0.1 0.2,0 0.2,-0.1 0.9,-0.6 0.9,-0.6 0,0 0.1,0.1 0.3,-0.1 0.2,-0.2 1.6,-1.5 1.6,-1.5 0,0 -0.1,0.2 0.2,0.3 0,0 -0.2,0.2 0.2,0.3 0,0 -0.1,0.3 0.3,0.3 0,0 0.1,0.2 0.3,0.3 0,0 0,0.1 0.3,0.2 0,0 0,0.2 0.3,0.2 0,0 0,0.2 0.3,0.2 0,0 0.1,0.2 0.4,0.1 0,0 0.2,0.1 0.3,0 0,0 0,0.2 0.4,0.1 0,0 0.2,0.3 0.6,0.1 0,0 0.3,0.3 0.6,0.1 l 0.1,-0.1 c 0,0 0.3,0.3 0.5,0.2 0.3,-0.1 0.2,-0.2 0.2,-0.2 0,0 0.4,0.3 0.7,0.2 v -0.2 c 0,0 0.5,0.4 0.8,0.3 l -0.1,-0.5 c 0,0 0.5,0.4 0.9,0.2 l -0.4,-0.6 c 0,0 0.5,0.2 0.7,0 l -0.4,-0.3 c 0,0 0.4,0.2 0.6,0.1 l -2,-1 c 0,0 -0.1,-0.3 -1,-0.7 -0.9,-0.4 -1.6,-1 -1.6,-1 0,0 0.3,0 0.6,-0.1 0.2,-0.1 0.6,-0.5 0.6,-0.5 0,0 0.2,-0.1 0.2,0 v 0.1 c 0,0 0.1,0 0.2,-0.1 0.1,-0.1 0.2,-0.3 0.1,-0.5 0,0 0.1,-0.1 0,-0.2 -0.1,-0.1 -0.4,-0.3 -1,-0.1 -0.6,0.2 -1.3,0.4 -1.3,0.4 z"
   inkscape:connector-curvature="0"
   style="fill:#e1474d" />
			<g
   id="g4334">
				<g
   id="Arbol_88_">
					<circle
   id="XMLID_1184_"
   cx="1373.6"
   cy="118.8"
   r="14.2"
   style="fill:#b9090b" />
					<circle
   id="XMLID_1183_"
   cx="1359.3"
   cy="121.6"
   r="9"
   style="fill:#b9090b" />
					<circle
   id="XMLID_1182_"
   cx="1387.8"
   cy="121.6"
   r="9"
   style="fill:#b9090b" />
					<circle
   id="XMLID_1181_"
   cx="1383.8"
   cy="110.8"
   r="6.1999998"
   style="fill:#b9090b" />
					<circle
   id="XMLID_1180_"
   cx="1370.1"
   cy="107.4"
   r="4"
   style="fill:#b9090b" />
					<circle
   id="XMLID_1179_"
   cx="1362.2"
   cy="110.8"
   r="6.1999998"
   style="fill:#b9090b" />
					<rect
   id="XMLID_1178_"
   x="1371"
   y="123.8"
   width="5.1999998"
   height="63.5"
   style="fill:#b9090b" />
				</g>
				<g
   id="Arbol_87_">
					<circle
   id="XMLID_1177_"
   cx="1284.8"
   cy="188.2"
   r="14.2"
   style="fill:#b9090b" />
					<circle
   id="XMLID_1176_"
   cx="1270.5"
   cy="191"
   r="9"
   style="fill:#b9090b" />
					<circle
   id="XMLID_1175_"
   cx="1299"
   cy="191"
   r="9"
   style="fill:#b9090b" />
					<circle
   id="XMLID_1174_"
   cx="1295"
   cy="180.3"
   r="6.1999998"
   style="fill:#b9090b" />
					<circle
   id="XMLID_1173_"
   cx="1281.3"
   cy="176.8"
   r="4"
   style="fill:#b9090b" />
					<circle
   id="XMLID_1172_"
   cx="1273.4"
   cy="180.3"
   r="6.1999998"
   style="fill:#b9090b" />
					<rect
   id="XMLID_1171_"
   x="1282.2"
   y="193.3"
   width="5.1999998"
   height="63.5"
   style="fill:#b9090b" />
				</g>
				<g
   id="Arbol_86_">
					<circle
   id="XMLID_1170_"
   cx="1227.9"
   cy="189.8"
   r="12.1"
   style="fill:#b9090b" />
					<circle
   id="XMLID_1169_"
   cx="1215.7"
   cy="192.2"
   r="7.6999998"
   style="fill:#b9090b" />
					<circle
   id="XMLID_1168_"
   cx="1240"
   cy="192.2"
   r="7.6999998"
   style="fill:#b9090b" />
					<circle
   id="XMLID_1167_"
   cx="1236.6"
   cy="182.89999"
   r="5.3000002"
   style="fill:#b9090b" />
					<circle
   id="XMLID_1166_"
   cx="1224.9"
   cy="180"
   r="3.4000001"
   style="fill:#b9090b" />
					<circle
   id="XMLID_1165_"
   cx="1218.1"
   cy="182.89999"
   r="5.3000002"
   style="fill:#b9090b" />
					<rect
   id="XMLID_1164_"
   x="1226.5"
   y="194.10001"
   width="3.8"
   height="58.299999"
   style="fill:#b9090b" />
				</g>
				<g
   id="Arbol_85_">
					<circle
   id="XMLID_1163_"
   cx="1263.2"
   cy="156.8"
   r="12.1"
   style="fill:#b9090b" />
					<circle
   id="XMLID_1162_"
   cx="1251"
   cy="159.10001"
   r="7.6999998"
   style="fill:#b9090b" />
					<circle
   id="XMLID_1161_"
   cx="1275.3"
   cy="159.10001"
   r="7.6999998"
   style="fill:#b9090b" />
					<circle
   id="XMLID_1160_"
   cx="1271.9"
   cy="149.89999"
   r="5.3000002"
   style="fill:#b9090b" />
					<circle
   id="XMLID_1159_"
   cx="1260.2"
   cy="147"
   r="3.4000001"
   style="fill:#b9090b" />
					<circle
   id="XMLID_1158_"
   cx="1253.4"
   cy="149.89999"
   r="5.3000002"
   style="fill:#b9090b" />
					<rect
   id="XMLID_1157_"
   x="1260.9"
   y="161.10001"
   width="4.4000001"
   height="71.199997"
   style="fill:#b9090b" />
				</g>
				<g
   id="Arbol_84_">
					<circle
   id="XMLID_1156_"
   cx="1306.4"
   cy="138.5"
   r="12.1"
   style="fill:#b9090b" />
					<circle
   id="XMLID_1155_"
   cx="1294.2"
   cy="140.89999"
   r="7.6999998"
   style="fill:#b9090b" />
					<circle
   id="XMLID_1154_"
   cx="1318.5"
   cy="140.89999"
   r="7.6999998"
   style="fill:#b9090b" />
					<circle
   id="XMLID_1153_"
   cx="1315.2"
   cy="131.7"
   r="5.3000002"
   style="fill:#b9090b" />
					<circle
   id="XMLID_1152_"
   cx="1303.5"
   cy="128.8"
   r="3.4000001"
   style="fill:#b9090b" />
					<circle
   id="XMLID_1151_"
   cx="1296.7"
   cy="131.7"
   r="5.3000002"
   style="fill:#b9090b" />
					<rect
   id="XMLID_1150_"
   x="1304.2"
   y="136.8"
   width="4.4000001"
   height="71.199997"
   style="fill:#b9090b" />
				</g>
				<g
   id="Arbol_83_">
					<circle
   id="XMLID_1149_"
   cx="1347.4"
   cy="155.60001"
   r="12.1"
   style="fill:#b9090b" />
					<circle
   id="XMLID_1148_"
   cx="1335.2"
   cy="158"
   r="7.6999998"
   style="fill:#b9090b" />
					<circle
   id="XMLID_1147_"
   cx="1359.5"
   cy="158"
   r="7.6999998"
   style="fill:#b9090b" />
					<circle
   id="XMLID_1146_"
   cx="1356.1"
   cy="148.8"
   r="5.3000002"
   style="fill:#b9090b" />
					<circle
   id="XMLID_1145_"
   cx="1344.5"
   cy="145.89999"
   r="3.4000001"
   style="fill:#b9090b" />
					<circle
   id="XMLID_1144_"
   cx="1337.7"
   cy="148.8"
   r="5.3000002"
   style="fill:#b9090b" />
					<rect
   id="XMLID_1143_"
   x="1346"
   y="159.89999"
   width="3.8"
   height="72.800003"
   style="fill:#b9090b" />
				</g>
				<g
   id="Arbol_82_">
					<circle
   id="XMLID_1142_"
   cx="1399.4"
   cy="111.6"
   r="12.1"
   style="fill:#b9090b" />
					<circle
   id="XMLID_1141_"
   cx="1387.2"
   cy="114"
   r="7.6999998"
   style="fill:#b9090b" />
					<circle
   id="XMLID_1140_"
   cx="1411.5"
   cy="114"
   r="7.6999998"
   style="fill:#b9090b" />
					<circle
   id="XMLID_1139_"
   cx="1408.1"
   cy="104.8"
   r="5.3000002"
   style="fill:#b9090b" />
					<circle
   id="XMLID_1138_"
   cx="1396.5"
   cy="101.9"
   r="3.4000001"
   style="fill:#b9090b" />
					<circle
   id="XMLID_1137_"
   cx="1389.7"
   cy="104.8"
   r="5.3000002"
   style="fill:#b9090b" />
					<rect
   id="XMLID_1136_"
   x="1398"
   y="115.9"
   width="3.8"
   height="72.800003"
   style="fill:#b9090b" />
				</g>
				<g
   id="Arbol_81_">
					<circle
   id="XMLID_1135_"
   cx="1257.3"
   cy="205.7"
   r="12.1"
   style="fill:#b9090b" />
					<circle
   id="XMLID_1134_"
   cx="1269.5"
   cy="208.10001"
   r="7.6999998"
   style="fill:#b9090b" />
					<circle
   id="XMLID_1133_"
   cx="1245.2"
   cy="208.10001"
   r="7.6999998"
   style="fill:#b9090b" />
					<circle
   id="XMLID_1132_"
   cx="1248.6"
   cy="198.89999"
   r="5.3000002"
   style="fill:#b9090b" />
					<circle
   id="XMLID_1131_"
   cx="1260.3"
   cy="196"
   r="3.4000001"
   style="fill:#b9090b" />
					<circle
   id="XMLID_1130_"
   cx="1267.1"
   cy="198.89999"
   r="5.3000002"
   style="fill:#b9090b" />
				</g>
				<g
   id="Arbol_80_">
					<circle
   id="XMLID_1129_"
   cx="1184.5"
   cy="229.60001"
   r="12.1"
   style="fill:#b9090b" />
					<circle
   id="XMLID_1128_"
   cx="1196.6"
   cy="232"
   r="7.6999998"
   style="fill:#b9090b" />
					<circle
   id="XMLID_1127_"
   cx="1172.3"
   cy="232"
   r="7.6999998"
   style="fill:#b9090b" />
					<circle
   id="XMLID_1126_"
   cx="1175.7"
   cy="222.8"
   r="5.3000002"
   style="fill:#b9090b" />
					<circle
   id="XMLID_1125_"
   cx="1187.4"
   cy="219.89999"
   r="3.4000001"
   style="fill:#b9090b" />
					<circle
   id="XMLID_1124_"
   cx="1194.2"
   cy="222.8"
   r="5.3000002"
   style="fill:#b9090b" />
					<rect
   id="XMLID_1123_"
   x="1182.2"
   y="233.89999"
   width="4.4000001"
   height="94.099998"
   style="fill:#b9090b" />
				</g>
				<g
   id="Arbol_79_">
					<circle
   id="XMLID_1122_"
   cx="1218.7"
   cy="226.2"
   r="12.1"
   style="fill:#b9090b" />
					<circle
   id="XMLID_1121_"
   cx="1206.5"
   cy="228.60001"
   r="7.6999998"
   style="fill:#b9090b" />
					<circle
   id="XMLID_1120_"
   cx="1230.9"
   cy="228.60001"
   r="7.6999998"
   style="fill:#b9090b" />
					<circle
   id="XMLID_1119_"
   cx="1227.5"
   cy="219.39999"
   r="5.3000002"
   style="fill:#b9090b" />
					<circle
   id="XMLID_1118_"
   cx="1215.8"
   cy="216.5"
   r="3.4000001"
   style="fill:#b9090b" />
					<circle
   id="XMLID_1117_"
   cx="1209"
   cy="219.39999"
   r="5.3000002"
   style="fill:#b9090b" />
					<rect
   id="XMLID_1116_"
   x="1217.2"
   y="230.5"
   width="3.9000001"
   height="27.6"
   style="fill:#b9090b" />
				</g>
			</g>
			<g
   id="g4450">
				<g
   id="Arbol_78_">
					<circle
   id="XMLID_1115_"
   cx="1366"
   cy="224.7"
   r="15.2"
   style="fill:#a50b11" />
					<circle
   id="XMLID_1114_"
   cx="1350.7"
   cy="227.7"
   r="9.6000004"
   style="fill:#a50b11" />
					<circle
   id="XMLID_1113_"
   cx="1381.2"
   cy="227.7"
   r="9.6000004"
   style="fill:#a50b11" />
					<circle
   id="XMLID_1112_"
   cx="1376.9"
   cy="216.2"
   r="6.5999999"
   style="fill:#a50b11" />
					<circle
   id="XMLID_1111_"
   cx="1362.3"
   cy="212.5"
   r="4.1999998"
   style="fill:#a50b11" />
					<circle
   id="XMLID_1110_"
   cx="1353.8"
   cy="216.2"
   r="6.5999999"
   style="fill:#a50b11" />
					<rect
   id="XMLID_1109_"
   x="1363.2"
   y="230.2"
   width="5.5999999"
   height="40.700001"
   style="fill:#a50b11" />
				</g>
				<g
   id="Arbol_77_">
					<circle
   id="XMLID_1108_"
   cx="1397"
   cy="189.7"
   r="15.2"
   style="fill:#a50b11" />
					<circle
   id="XMLID_1107_"
   cx="1381.7"
   cy="192.7"
   r="9.6000004"
   style="fill:#a50b11" />
					<circle
   id="XMLID_1106_"
   cx="1412.2"
   cy="192.7"
   r="9.6000004"
   style="fill:#a50b11" />
					<circle
   id="XMLID_1105_"
   cx="1407.9"
   cy="181.2"
   r="6.5999999"
   style="fill:#a50b11" />
					<circle
   id="XMLID_1104_"
   cx="1393.3"
   cy="177.5"
   r="4.1999998"
   style="fill:#a50b11" />
					<circle
   id="XMLID_1103_"
   cx="1384.8"
   cy="181.2"
   r="6.5999999"
   style="fill:#a50b11" />
					<rect
   id="XMLID_1102_"
   x="1394.2"
   y="195.2"
   width="5.5999999"
   height="40.700001"
   style="fill:#a50b11" />
				</g>
				<g
   id="Arbol_76_">
					<circle
   id="XMLID_1101_"
   cx="1322.7"
   cy="233.5"
   r="15.2"
   style="fill:#a50b11" />
					<circle
   id="XMLID_1100_"
   cx="1307.4"
   cy="236.5"
   r="9.6999998"
   style="fill:#a50b11" />
					<circle
   id="XMLID_1099_"
   cx="1337.9"
   cy="236.5"
   r="9.6999998"
   style="fill:#a50b11" />
					<circle
   id="XMLID_1098_"
   cx="1333.7"
   cy="225"
   r="6.5999999"
   style="fill:#a50b11" />
					<circle
   id="XMLID_1097_"
   cx="1319"
   cy="221.3"
   r="4.3000002"
   style="fill:#a50b11" />
					<circle
   id="XMLID_1096_"
   cx="1310.4"
   cy="225"
   r="6.5999999"
   style="fill:#a50b11" />
					<rect
   id="XMLID_1095_"
   x="1319.9"
   y="239"
   width="5.5999999"
   height="60.400002"
   style="fill:#a50b11" />
				</g>
				<g
   id="Arbol_75_">
					<circle
   id="XMLID_1094_"
   cx="1347.5"
   cy="176.7"
   r="15.2"
   style="fill:#a50b11" />
					<circle
   id="XMLID_1093_"
   cx="1332.1"
   cy="179.8"
   r="9.6999998"
   style="fill:#a50b11" />
					<circle
   id="XMLID_1092_"
   cx="1368.7"
   cy="183.8"
   r="9.6999998"
   style="fill:#a50b11" />
					<circle
   id="XMLID_1091_"
   cx="1358.4"
   cy="168.2"
   r="6.5999999"
   style="fill:#a50b11" />
					<circle
   id="XMLID_1090_"
   cx="1364.4"
   cy="174.2"
   r="6.5999999"
   style="fill:#a50b11" />
					<circle
   id="XMLID_1089_"
   cx="1357.4"
   cy="189.2"
   r="6.5999999"
   style="fill:#a50b11" />
					<circle
   id="XMLID_1088_"
   cx="1343.8"
   cy="164.5"
   r="4.3000002"
   style="fill:#a50b11" />
					<circle
   id="XMLID_1087_"
   cx="1335.2"
   cy="168.2"
   r="6.5999999"
   style="fill:#a50b11" />
					<rect
   id="XMLID_1072_"
   x="1347.3"
   y="182.2"
   width="3.5999999"
   height="48.400002"
   style="fill:#a50b11" />
				</g>
				<g
   id="Arbol_74_">
					<circle
   id="XMLID_1071_"
   cx="1254.6"
   cy="294.79999"
   r="15.4"
   style="fill:#a50b11" />
					<circle
   id="XMLID_1070_"
   cx="1239.1"
   cy="297.79999"
   r="9.8000002"
   style="fill:#a50b11" />
					<circle
   id="XMLID_1069_"
   cx="1270"
   cy="297.79999"
   r="9.8000002"
   style="fill:#a50b11" />
					<circle
   id="XMLID_1068_"
   cx="1265.7"
   cy="286.10001"
   r="6.6999998"
   style="fill:#a50b11" />
					<circle
   id="XMLID_1067_"
   cx="1250.9"
   cy="282.39999"
   r="4.3000002"
   style="fill:#a50b11" />
					<circle
   id="XMLID_1066_"
   cx="1242.3"
   cy="286.10001"
   r="6.6999998"
   style="fill:#a50b11" />
					<rect
   id="XMLID_1065_"
   x="1251.8"
   y="300.29999"
   width="5.5999999"
   height="41.200001"
   style="fill:#a50b11" />
				</g>
				<g
   id="Arbol_69_">
					<circle
   id="XMLID_1060_"
   cx="1200.8"
   cy="315.60001"
   r="15.4"
   style="fill:#a50b11" />
					<circle
   id="XMLID_1059_"
   cx="1185.3"
   cy="318.60001"
   r="9.8000002"
   style="fill:#a50b11" />
					<circle
   id="XMLID_1058_"
   cx="1216.2"
   cy="318.60001"
   r="9.8000002"
   style="fill:#a50b11" />
					<circle
   id="XMLID_1057_"
   cx="1211.9"
   cy="306.89999"
   r="6.6999998"
   style="fill:#a50b11" />
					<circle
   id="XMLID_951_"
   cx="1197.1"
   cy="303.20001"
   r="4.3000002"
   style="fill:#a50b11" />
					<circle
   id="XMLID_950_"
   cx="1188.4"
   cy="306.89999"
   r="6.6999998"
   style="fill:#a50b11" />
					<rect
   id="XMLID_949_"
   x="1198"
   y="321.10001"
   width="5.5999999"
   height="41.200001"
   style="fill:#a50b11" />
				</g>
				<g
   id="Arbol_68_">
					<circle
   id="XMLID_948_"
   cx="1189.3"
   cy="264.89999"
   r="15.4"
   style="fill:#a50b11" />
					<circle
   id="XMLID_947_"
   cx="1173.8"
   cy="267.89999"
   r="9.8000002"
   style="fill:#a50b11" />
					<circle
   id="XMLID_946_"
   cx="1204.7"
   cy="267.89999"
   r="9.8000002"
   style="fill:#a50b11" />
					<circle
   id="XMLID_945_"
   cx="1200.4"
   cy="256.20001"
   r="6.6999998"
   style="fill:#a50b11" />
					<circle
   id="XMLID_944_"
   cx="1185.6"
   cy="252.5"
   r="4.3000002"
   style="fill:#a50b11" />
					<circle
   id="XMLID_943_"
   cx="1176.9"
   cy="256.20001"
   r="6.6999998"
   style="fill:#a50b11" />
					<rect
   id="XMLID_942_"
   x="1186.5"
   y="270.39999"
   width="5.5999999"
   height="41.200001"
   style="fill:#a50b11" />
				</g>
				<g
   id="Arbol_67_">
					<circle
   id="XMLID_941_"
   cx="1220.3"
   cy="279.89999"
   r="15.4"
   style="fill:#a50b11" />
					<circle
   id="XMLID_940_"
   cx="1204.8"
   cy="282.89999"
   r="9.8000002"
   style="fill:#a50b11" />
					<circle
   id="XMLID_939_"
   cx="1235.7"
   cy="282.89999"
   r="9.8000002"
   style="fill:#a50b11" />
					<circle
   id="XMLID_938_"
   cx="1231.4"
   cy="271.20001"
   r="6.6999998"
   style="fill:#a50b11" />
					<circle
   id="XMLID_937_"
   cx="1216.6"
   cy="267.5"
   r="4.3000002"
   style="fill:#a50b11" />
					<circle
   id="XMLID_936_"
   cx="1207.9"
   cy="271.20001"
   r="6.6999998"
   style="fill:#a50b11" />
					<rect
   id="XMLID_935_"
   x="1217.5"
   y="281.39999"
   width="5.5999999"
   height="41.200001"
   style="fill:#a50b11" />
				</g>
				<g
   id="Arbol_66_">
					<circle
   id="XMLID_934_"
   cx="1291.6"
   cy="252.39999"
   r="15.9"
   style="fill:#a50b11" />
					<circle
   id="XMLID_933_"
   cx="1275.6"
   cy="255.60001"
   r="10.1"
   style="fill:#a50b11" />
					<circle
   id="XMLID_932_"
   cx="1307.5"
   cy="255.60001"
   r="10.1"
   style="fill:#a50b11" />
					<circle
   id="XMLID_931_"
   cx="1303.1"
   cy="243.5"
   r="6.9000001"
   style="fill:#a50b11" />
					<circle
   id="XMLID_930_"
   cx="1287.7"
   cy="239.60001"
   r="4.4000001"
   style="fill:#a50b11" />
					<circle
   id="XMLID_929_"
   cx="1278.8"
   cy="243.5"
   r="6.9000001"
   style="fill:#a50b11" />
					<rect
   id="XMLID_928_"
   x="1288.7"
   y="258.10001"
   width="5.8000002"
   height="71.199997"
   style="fill:#a50b11" />
				</g>
				<g
   id="Arbol_63_">
					<circle
   id="XMLID_927_"
   cx="1172.6"
   cy="288.39999"
   r="15.9"
   style="fill:#a50b11" />
					<circle
   id="XMLID_926_"
   cx="1156.6"
   cy="291.60001"
   r="10.1"
   style="fill:#a50b11" />
					<circle
   id="XMLID_925_"
   cx="1188.5"
   cy="291.60001"
   r="10.1"
   style="fill:#a50b11" />
					<circle
   id="XMLID_924_"
   cx="1184.1"
   cy="279.5"
   r="6.9000001"
   style="fill:#a50b11" />
					<circle
   id="XMLID_923_"
   cx="1168.7"
   cy="275.60001"
   r="4.4000001"
   style="fill:#a50b11" />
					<circle
   id="XMLID_922_"
   cx="1159.8"
   cy="279.5"
   r="6.9000001"
   style="fill:#a50b11" />
					<rect
   id="XMLID_921_"
   x="1169.7"
   y="294.10001"
   width="5.8000002"
   height="71.199997"
   style="fill:#a50b11" />
				</g>
				<g
   id="Arbol_60_">
					<circle
   id="XMLID_920_"
   cx="1276"
   cy="223"
   r="15.9"
   style="fill:#a50b11" />
					<circle
   id="XMLID_919_"
   cx="1260"
   cy="226.10001"
   r="10.1"
   style="fill:#a50b11" />
					<circle
   id="XMLID_918_"
   cx="1291.9"
   cy="226.10001"
   r="10.1"
   style="fill:#a50b11" />
					<circle
   id="XMLID_917_"
   cx="1287.5"
   cy="214"
   r="6.9000001"
   style="fill:#a50b11" />
					<circle
   id="XMLID_916_"
   cx="1272.2"
   cy="210.2"
   r="4.4000001"
   style="fill:#a50b11" />
					<circle
   id="XMLID_915_"
   cx="1263.2"
   cy="214"
   r="6.9000001"
   style="fill:#a50b11" />
					<rect
   id="XMLID_914_"
   x="1273.1"
   y="228.60001"
   width="5.8000002"
   height="71.199997"
   style="fill:#a50b11" />
				</g>
				<g
   id="Arbol_59_">
					<circle
   id="XMLID_913_"
   cx="1303.4"
   cy="195.60001"
   r="15.9"
   style="fill:#a50b11" />
					<circle
   id="XMLID_912_"
   cx="1287.3"
   cy="198.8"
   r="10.1"
   style="fill:#a50b11" />
					<circle
   id="XMLID_911_"
   cx="1319.3"
   cy="198.8"
   r="10.1"
   style="fill:#a50b11" />
					<circle
   id="XMLID_910_"
   cx="1314.8"
   cy="186.7"
   r="6.9000001"
   style="fill:#a50b11" />
					<circle
   id="XMLID_909_"
   cx="1299.5"
   cy="182.8"
   r="4.4000001"
   style="fill:#a50b11" />
					<circle
   id="XMLID_908_"
   cx="1290.6"
   cy="186.7"
   r="6.9000001"
   style="fill:#a50b11" />
					<rect
   id="XMLID_907_"
   x="1300.6"
   y="201.3"
   width="5.6999998"
   height="45"
   style="fill:#a50b11" />
				</g>
				<g
   id="Arbol_58_">
					<circle
   id="XMLID_906_"
   cx="1410.4"
   cy="145.60001"
   r="15.9"
   style="fill:#a50b11" />
					<circle
   id="XMLID_905_"
   cx="1394.3"
   cy="148.8"
   r="10.1"
   style="fill:#a50b11" />
					<circle
   id="XMLID_904_"
   cx="1426.3"
   cy="148.8"
   r="10.1"
   style="fill:#a50b11" />
					<circle
   id="XMLID_903_"
   cx="1421.8"
   cy="136.7"
   r="6.9000001"
   style="fill:#a50b11" />
					<circle
   id="XMLID_902_"
   cx="1406.5"
   cy="132.8"
   r="4.4000001"
   style="fill:#a50b11" />
					<circle
   id="XMLID_901_"
   cx="1397.6"
   cy="136.7"
   r="6.9000001"
   style="fill:#a50b11" />
					<rect
   id="XMLID_900_"
   x="1407.6"
   y="151.3"
   width="5.6999998"
   height="45"
   style="fill:#a50b11" />
				</g>
				<g
   id="Arbol_57_">
					<circle
   id="XMLID_899_"
   cx="1236.5"
   cy="248.60001"
   r="15.9"
   style="fill:#a50b11" />
					<circle
   id="XMLID_898_"
   cx="1220.5"
   cy="251.7"
   r="10.1"
   style="fill:#a50b11" />
					<circle
   id="XMLID_897_"
   cx="1252.4"
   cy="251.7"
   r="10.1"
   style="fill:#a50b11" />
					<circle
   id="XMLID_896_"
   cx="1248"
   cy="239.60001"
   r="6.9000001"
   style="fill:#a50b11" />
					<circle
   id="XMLID_895_"
   cx="1232.6"
   cy="235.8"
   r="4.4000001"
   style="fill:#a50b11" />
					<circle
   id="XMLID_894_"
   cx="1223.7"
   cy="239.60001"
   r="6.9000001"
   style="fill:#a50b11" />
					<rect
   id="XMLID_893_"
   x="1233.7"
   y="254.2"
   width="5.6999998"
   height="42.700001"
   style="fill:#a50b11" />
				</g>
			</g>
			<path
   id="XMLID_892_"
   d="M 332.3,274.6 331,261 c 0,0 4.4,-4.7 4.4,-7.8 0,-3.1 -3.9,-7.3 -3.9,-7.3 0,0 -1.8,-7.6 7.9,-9.5 9.7,-1.9 20.4,1 24.4,3 4,2.1 6.6,-1.2 6.6,-1.2 0,0 3.6,-16.3 6.6,-17.1 l 0.8,1.4 1.7,-1.4 -0.5,2.7 5.6,4.5 c 0,0 1.5,1.6 -0.6,2.4 0,0 -0.3,0.6 -1.7,0.6 -1.4,0 -3,-0.5 -4.2,0.2 -2.5,1.6 -1.4,6.6 -3.4,9.6 -1.9,3 -6.4,11 -11.6,12.8 0,0 -2.1,2.3 -1.9,6.2 0.1,3.9 -1.6,11.7 -0.4,12.4 1.2,0.8 2.6,1.9 2.6,1.9 0,0 -5.4,0.9 -5.3,-0.4 0.2,-1.3 -0.3,-9.4 -1,-10.8 -0.8,-1.4 1,-9 -0.9,-10.4 -1.8,-1.4 -5.3,2.6 -12.1,-4.4 0,0 -6.9,13.8 -6.4,15.2 0,0 -0.5,-3.4 0,0 0.5,3.4 1.2,10.4 2.1,10.7 0.9,0.3 2.6,2.1 2.6,2.1 h -4 l -3.8,-12.7 -0.4,9 1.5,1.5 z"
   inkscape:connector-curvature="0"
   style="fill:#a50b11" />
			<path
   id="XMLID_891_"
   d="m 1272.4,82.5 c 0,0 0.1,0.2 -0.6,-0.7 -0.7,-0.9 -0.8,-3.8 -0.8,-3.8 v -1.1 l -0.9,-1.9 -2.4,-6.8 c 0,0 -0.5,1.9 0.1,3.3 L 1267,71 v 0.7 l -0.1,-0.1 -2.6,-3.4 c 0,0 -0.2,0 -0.1,0.4 0.1,0.4 0.7,2.2 1.2,2.9 l -1.8,-1.6 c 0,0 -0.2,0.1 -0.2,0.4 0.1,0.3 0.3,1 0.5,1.4 0,0 -0.6,-0.4 -0.7,0.1 -0.1,0.5 0,1.1 0,1.1 l 0.2,0.2 c 0,0 -0.4,-0.2 -0.7,0.3 -0.2,0.5 0.7,1.1 0.7,1.1 0,0 -1,-0.2 -1.1,0.2 -0.1,0.5 0.7,1.1 0.7,1.1 0,0 -0.6,-0.2 -0.8,0.2 -0.2,0.4 0,0.7 0.8,0.9 0,0 -0.9,0 -0.9,0.5 0,0.4 0.4,0.7 1,0.7 0,0 -0.9,0.2 -0.8,1.1 h 0.2 c 0,0 -0.4,0.5 0,0.9 0,0 -0.6,0.4 -0.1,0.9 0,0 -0.2,0.9 0.2,0.7 0,0 -0.2,0.8 0.2,0.7 0,0 -0.1,0.7 0.2,0.9 0,0 0,0.8 0.5,0.8 0,0 0,0.5 0.3,0.5 0,0 -0.1,0.4 0.2,0.5 l -3.9,0.3 c 0,0 -0.6,0.1 -0.2,0.4 0.4,0.3 1.6,0.3 1.7,0.3 l -3.9,1.2 c 0,0 -0.6,0.2 -0.1,0.5 0.5,0.3 2.6,-0.2 2.6,-0.2 l -4.2,2.2 c 0,0 -0.4,0.3 0.2,0.4 0.6,0 1.2,-0.2 1.2,-0.2 l -3.3,1.9 c 0,0 -0.5,0.3 0.2,0.3 0.7,0 1.7,-0.5 1.7,-0.5 l -4.5,2.9 c 0,0 -0.2,0.2 0.1,0.2 0.3,0 -2.5,1.5 -2.5,1.5 0,0 -0.7,0.9 2.4,-0.3 3.1,-1.2 3.5,-1.4 3.5,-1.4 l -2,1.5 c 0,0 -0.7,0.6 0,0.3 0.7,-0.3 4.5,-2.4 4.5,-2.4 l -1.2,1.2 c 0,0 -0.4,0.5 0.2,0.3 0.6,-0.2 3.5,-2.2 3.5,-2.2 0,0 0,0.1 0.4,-0.1 0.4,-0.2 1.8,-1.2 1.8,-1.2 0,0 0.1,0.2 0.7,-0.2 0.6,-0.5 3.4,-3.2 3.4,-3.2 0,0 -0.3,0.4 0.5,0.7 0,0 -0.3,0.5 0.4,0.7 0,0 -0.3,0.6 0.6,0.7 0,0 0.1,0.4 0.7,0.5 0,0 -0.1,0.3 0.7,0.4 0,0 0,0.4 0.5,0.4 0,0 0,0.5 0.7,0.4 0,0 0.1,0.5 0.9,0.2 0,0 0.4,0.2 0.7,0.1 0,0 0.1,0.5 0.9,0.2 0,0 0.4,0.6 1.3,0.3 0,0 0.5,0.6 1.2,0.2 l 0.2,-0.2 c 0,0 0.6,0.6 1.1,0.4 0.5,-0.2 0.5,-0.4 0.5,-0.4 0,0 0.9,0.6 1.5,0.4 l 0.1,-0.5 c 0,0 1.1,0.8 1.8,0.6 l -0.3,-1.2 c 0,0 1.1,0.8 1.8,0.5 l -0.8,-1.3 c 0,0 1.1,0.3 1.5,0.1 l -0.8,-0.6 c 0,0 0.9,0.5 1.2,0.1 l -4.2,-2.2 c 0,0 -0.2,-0.7 -2.1,-1.5 -1.9,-0.8 -3.4,-2.2 -3.4,-2.2 0,0 0.7,0.1 1.2,-0.1 0.5,-0.2 1.2,-1 1.2,-1 0,0 0.4,-0.2 0.5,0.1 v 0.3 c 0,0 0.2,0 0.4,-0.3 0.2,-0.3 0.3,-0.6 0.1,-1.1 0,0 0.3,-0.2 0,-0.4 -0.2,-0.2 -0.9,-0.5 -2.2,-0.3 -1.4,-0.3 -2.3,-0.1 -2.3,-0.1 z"
   inkscape:connector-curvature="0"
   style="fill:#a50b11" />
			<g
   id="g4456">
				<path
   d="m 847.1,368.6 c -37,-9 -88.3,-26.3 -117.2,-40.9 -42.1,-21.4 -84.3,0.6 -116.1,7.6 -31.8,7 -97.9,-2.9 -120.1,-11.5 -22.2,-8.7 -40.6,-48.5 -76.5,-46.1 -35.9,2.3 -29.4,16.2 -67,3.8 C 312.6,269 297.8,261 287,251.2 276.2,241.4 265.2,206.5 251.7,196.1 241,187.8 214.2,200 196.5,185 l -10.5,0.3 -1.4,-5.9 -11.4,-7.7 -12,-16.5 -19.9,-8.1 -13.7,-2.2 -6,-11.3 h -7.1 l -7,2.8 -7.1,-7.2 -13.5,0.4 -5,4 H 66.1 l -3.5,10 H 41 L 31.3,165.8 18.2,152.8 0,152.3 v 216.2 h 847.1 z"
   id="path4454"
   inkscape:connector-curvature="0"
   style="fill:#c1272d" />
			</g>
			<g
   id="g4460">
				<path
   d="m 3.2,209.5 21.9,5.3 64.5,-3.8 4.4,7 -74,5 -20,-6.1 v 12.2 l 19.6,8.9 81.3,-5.1 10.2,6.1 -78.2,4.8 0.2,4.2 82,-4.2 74.6,22.9 -116.7,15 V 261 l -45.6,4.9 -6.9,-14.7 -20.5,-8 v 29.3 l 27,15 -22.4,2.9 -4.6,-2.6 v 80.7 c 3,0 5.3,0 7.9,0 7.4,0 14.8,0 22.2,0 11.6,0 23.2,0 34.7,0 15.2,0 30.3,0 45.5,0 18.1,0 36.3,0 54.4,0 20.5,0 41.1,0 61.6,0 22.3,0 44.6,0 66.9,0 23.5,0 46.9,0 70.4,0 24,0 48.1,0 72.1,0 24,0 48,0 72,0 23.4,0 46.7,0 70.1,0 22.1,0 44.2,0 66.3,0 20.3,0 40.5,0 60.8,0 17.8,0 35.6,0 53.4,0 14.8,0 29.5,0 44.3,0 11.1,0 22.2,0 33.3,0 6.8,0 13.7,0 20.5,0 1.7,0 3.5,0.2 5,-0.3 -1.4,-1.8 -41.5,-6.9 -59.7,-7.1 -27.3,-0.4 -54.6,-1 -81.9,-1.9 -28.4,-0.9 -56.9,-2.2 -85.2,-4.3 -19.4,-1.5 -39.6,-2.5 -58.6,-7.3 -59.2,-13.9 -83.1,-9.3 -134.4,-12.7 -51.3,-3.4 -46.7,-74 -92.2,-67.1 -45.5,6.9 -30.2,30.8 -65.5,5.6 -35.3,-25.1 -17.7,-19.1 -32.5,-33.3 V 227.5 H 221 v -22 h -12 v -14 h -15 v -13 h -32 v -14 h -21.9 l -49.5,3.7 -14.2,16.7 -41.1,2.6 -15.8,-2.9 43.3,-3 -4.6,-14.9 H 21.7 l -2.9,10 -4.5,-4.6 -11.4,4.6 H 0 v 34.1 z m 15.1,-20.3 16,5 43.2,-1.8 3.3,4.5 -55.7,2.5 -21.6,-3.9 z"
   id="path4458"
   inkscape:connector-curvature="0"
   style="fill:#a50b11" />
			</g>
			<g
   id="XMLID_267_">
				<polygon
   id="XMLID_890_"
   points="260.9,269.3 248.9,250 261.9,267.1 254.5,248 263.3,265.3 257,238.3 265.2,263.4 265.8,240.9 267.6,261.6 273.7,236.9 269.7,261.1 276.4,245.7 272,262.1 278.6,252.9 273.9,264 286.3,250 275,265.5 288.4,257.6 275.3,267.3 292.4,262.4 275.7,268.9 291.8,266.5 275.8,270.9 291,271.2 275.5,273.3 262,273.9 246.6,253.7 "
   style="fill:#a50b11" />
				<path
   id="XMLID_889_"
   d="m 281.9,216 -1.2,-1.3 c 0,-0.9 0.1,-1.8 0.1,-2.7 0,-0.4 0,-0.7 0,-1.1 l 1.2,-1.3 -1.3,-1.1 c 0,-1 -0.1,-2 -0.2,-3 l 0.8,-1.8 -1,-0.5 c -0.1,-0.8 -0.1,-1.5 -0.2,-2.3 l 0.7,-1.9 -1,-0.9 c -0.1,-0.8 -0.2,-1.5 -0.3,-2.3 l 1.3,-2.3 -1.7,-0.7 c 0,-0.3 -0.1,-0.7 -0.1,-1 l 0.6,-2.2 -1.1,-0.9 c -0.1,-0.8 -0.2,-1.6 -0.4,-2.3 l 0.8,-2.1 -1.3,-0.9 c -0.1,-0.5 -0.2,-1 -0.2,-1.4 l 0.6,-2.2 -1,-0.1 c -0.1,-0.6 -0.2,-1.1 -0.3,-1.7 l 0.4,-2.5 -1,-0.8 c -0.1,-0.7 -0.3,-1.4 -0.4,-2.1 l 0.9,-0.9 -1.3,-1.4 c -0.2,-0.9 -0.3,-1.8 -0.5,-2.7 l 0.9,-1.4 -1.3,-1 c -0.1,-0.5 -0.2,-1.1 -0.3,-1.6 l 0.6,-3.5 -1.1,0.9 c -0.8,-3.7 -1.3,-6.1 -1.3,-6.1 0,0 -0.8,2.6 -1.9,6.9 l -0.7,-1 0.2,3.4 c -0.2,0.7 -0.4,2.6 -0.5,2.6 h -1.5 l 0.9,2.1 c -0.1,0.5 -0.2,0.8 -0.3,1.3 l -1.2,0.1 0.4,3.6 c -0.1,0.2 -0.1,0.9 -0.2,0.9 h -1.2 l 0.3,4 h -1.5 l 0.9,4.1 c -0.1,0.7 -0.3,-1.1 -0.4,2.9 h -1 l 0.6,0.9 c -0.1,0.6 -0.2,0.7 -0.3,1.3 l -1.5,0.3 1.1,1 c -0.1,0.6 -0.2,0.6 -0.3,0.6 h -1.4 l 0.8,5.1 c -0.1,0.8 -0.2,2.2 -0.3,2.9 l -1,0.8 0.6,2.8 c -0.1,0.8 -0.1,1.6 -0.2,2.4 l -1.6,1.2 1.3,2.5 c 0,0.5 0,1 -0.1,1.5 l -1.3,1.2 1.2,3 c 0,0.8 0,1.6 0,2.4 l -1.2,1.9 1.4,1.5 c 0.1,1.1 0.2,2.2 0.3,3.3 l -0.2,0.3 0.4,0.6 c 0.2,1.5 0.5,2.9 0.8,4.1 l -0.6,1.2 1.4,1.7 c 0.2,0.8 0.5,1.5 0.8,2.2 l -0.3,1.1 1.1,0.8 c 0.3,0.6 0.6,1.2 0.9,1.8 l -0.5,1.1 1.6,0.6 c 0.4,0.5 0.7,0.3 1.1,0.7 l -0.4,0.3 h 1.3 c 1.2,2 2,1.6 2,1.6 0,0 0.4,0.4 1,-1.6 h 1.2 l -0.4,-0.8 c 0.1,-0.3 0.3,-0.2 0.5,-0.5 l 1.6,0.1 -0.5,-2.3 c 0.2,-0.4 0.4,-0.8 0.6,-1.3 l 1.6,-0.3 -0.6,-2.3 c 0.2,-0.5 0.3,-1 0.5,-1.5 l 1.5,-0.9 -0.7,-1.7 c 0.3,-0.9 0.5,-1.9 0.7,-3 l 1.3,-0.9 -0.7,-2.4 c 0.2,-1.1 0.3,-2.2 0.4,-3.4 z"
   inkscape:connector-curvature="0"
   style="fill:#a50b11" />
				<rect
   id="XMLID_423_"
   x="266.5"
   y="222.89999"
   width="10.2"
   height="43.900002"
   style="fill:#a50b11" />
			</g>
			<g
   id="XMLID_220_">
				<polygon
   id="XMLID_252_"
   points="280.3,301.3 271.5,287.1 281,299.7 275.6,285.7 282.1,298.4 277.4,278.6 283.4,297 283.9,280.5 285.2,295.7 289.7,277.6 286.8,295.3 291.7,284 288.4,296 293.2,289.3 289.8,297.4 298.9,287.1 290.6,298.5 300.4,292.7 290.8,299.8 303.4,296.2 291.1,301 302.9,299.2 291.2,302.5 302.3,302.7 290.9,304.2 281.1,304.7 269.8,289.9 "
   style="fill:#a50b11" />
				<path
   id="XMLID_224_"
   d="m 295.6,262.3 -0.9,-0.9 c 0,-0.7 0.1,-1.3 0.1,-2 0,-0.3 0,-0.5 0,-0.8 l 0.9,-1 -0.9,-0.8 c 0,-0.7 -0.1,-1.5 -0.1,-2.2 l 0.6,-1.3 -0.7,-0.4 c 0,-0.6 -0.1,-1.1 -0.2,-1.7 l 0.5,-1.4 -0.7,-0.6 c -0.1,-0.6 -0.1,-1.1 -0.2,-1.7 l 0.9,-1.7 -1.2,-0.5 c 0,-0.2 -0.1,-0.5 -0.1,-0.7 l 0.5,-1.6 -0.8,-0.7 c -0.1,-0.6 -0.2,-1.1 -0.3,-1.7 l 0.6,-1.6 -1,-0.7 c -0.1,-0.3 -0.1,-0.7 -0.2,-1 l 0.4,-1.6 -0.7,-0.1 c -0.1,-0.4 -0.1,-0.8 -0.2,-1.3 l 0.3,-1.8 -0.7,-0.6 c -0.1,-0.5 -0.2,-1 -0.3,-1.6 l 0.7,-0.7 -1,-1.1 c -0.1,-0.7 -0.3,-1.3 -0.4,-2 l 0.6,-1.1 -1,-0.7 c -0.1,-0.4 -0.2,-0.8 -0.2,-1.1 l 0.4,-2.6 -0.8,0.7 c -0.6,-2.7 -0.9,-4.4 -0.9,-4.4 0,0 -0.6,1.9 -1.4,5.1 l -0.5,-0.7 0.2,2.2 c -0.1,0.5 -0.3,1.6 -0.4,1.6 h -1.1 l 0.7,1.8 c -0.1,0.4 -0.2,0.7 -0.2,1.1 l -0.9,0.2 0.3,2.9 c 0,0.2 -0.1,1 -0.1,1 h -0.9 l 0.2,2 h -1.1 l 0.6,3.4 c -0.1,0.5 -0.2,-0.4 -0.3,2.6 H 283 l 0.5,0.4 c -0.1,0.4 -0.1,0.4 -0.2,0.8 l -1.1,0.1 0.8,1 c -0.1,0.5 -0.1,0.7 -0.2,0.7 h -1 l 0.6,3.4 c -0.1,0.6 -0.1,1.4 -0.2,2 l -0.7,0.5 0.5,2 c -0.1,0.6 -0.1,1.2 -0.2,1.7 l -1.2,0.9 1,1.8 c 0,0.4 0,0.7 -0.1,1.1 l -0.9,0.9 0.8,2.2 c 0,0.6 0,1.2 0,1.8 l -0.9,1.4 1,1.1 c 0.1,0.8 0.1,1.6 0.2,2.4 l -0.2,0.2 0.3,0.4 c 0.2,1.1 0.3,2.1 0.6,3 l -0.5,0.9 1,1.2 c 0.2,0.6 0.4,1.1 0.6,1.6 l -0.2,0.8 0.8,0.6 c 0.2,0.5 0.5,0.9 0.7,1.3 l -0.4,0.8 1.2,0.4 c 0.3,0.4 0.5,0.1 0.8,0.4 l -0.3,0.1 h 1 c 0.9,1 1.5,1.1 1.5,1.1 0,0 0.3,-0.1 0.8,-1.1 h 0.9 l -0.3,-0.5 c 0.1,-0.2 0.2,-0.1 0.3,-0.3 l 1.2,0.1 -0.3,-1.6 c 0.1,-0.3 0.3,-0.6 0.4,-0.9 l 1.2,-0.2 -0.4,-1.7 c 0.1,-0.4 0.3,-0.7 0.4,-1.1 l 1.1,-0.7 -0.5,-1.3 c 0.2,-0.7 0.4,-1.4 0.5,-2.2 l 0.9,-0.6 -0.5,-1.7 c 0.1,-0.8 0.2,-1.6 0.3,-2.5 z"
   inkscape:connector-curvature="0"
   style="fill:#a50b11" />
				<rect
   id="XMLID_223_"
   x="284.39999"
   y="267.29999"
   width="7.5"
   height="32.099998"
   style="fill:#a50b11" />
			</g>
		</g>
		
		
	</g>
</g>
<g
   id="Prueba"
   display="none"
   style="display:none"
   transform="translate(0,565.39997)">
	<g
   id="Layer_6"
   display="inline"
   style="display:inline">
	</g>
	<g
   id="Layer_5"
   display="inline"
   style="display:inline">
	</g>
	<g
   id="Layer_1"
   display="inline"
   style="display:inline">
		<g
   id="Layer_2">
		</g>
	</g>
</g>
<g
   id="Filtro_Color"
   transform="translate(0,565.39997)">
</g>
<rect
   style="fill:#a50b11;fill-opacity:1;stroke:#e7354e;stroke-width:0;stroke-miterlimit:4;stroke-dasharray:none;stroke-dashoffset:0;stroke-opacity:0.00392157"
   id="rect4520"
   width="1921.3993"
   height="132.43901"
   x="1.3938924"
   y="802.56378" /></svg>